<svg width="390" height="292" viewBox="0 0 390 292" fill="none" xmlns="http://www.w3.org/2000/svg">
<path d="M64.9591 254.916H320.58L331.402 174.543C331.695 172.426 331.451 170.285 330.744 168.265L289.672 53.193C287.844 48.1073 283.14 44.6033 277.728 44.3113L133.867 36.8897C129.845 36.6707 125.945 38.301 123.24 41.2697L61.8391 108.989C59.4503 111.617 58.2072 115.073 58.3778 118.625L64.9591 254.916Z" fill="#F4F4F4"/>
<path d="M310.271 225.424C310.222 225.424 310.173 225.4 310.149 225.376L297.401 212.576C297.327 212.503 297.327 212.406 297.401 212.333C297.474 212.26 297.571 212.26 297.644 212.333L310.392 225.132C310.466 225.205 310.466 225.303 310.392 225.376C310.368 225.4 310.319 225.424 310.271 225.424Z" fill="#21252B"/>
<path d="M322.775 217.296C322.701 217.248 322.58 217.272 322.531 217.345L313.171 231.483L315.486 174.616C315.486 174.518 315.413 174.445 315.316 174.445C315.218 174.445 315.145 174.518 315.145 174.616L312.488 239.853C312.488 239.951 312.561 240.024 312.659 240.024C312.756 240.024 312.83 239.951 312.83 239.853L313.146 232.14L322.799 217.54C322.872 217.442 322.848 217.345 322.775 217.296Z" fill="#21252B"/>
<path d="M314 209.218C313.951 209.218 313.926 209.194 313.878 209.169C313.805 209.096 313.805 208.999 313.853 208.926L328.454 192.282C328.527 192.209 328.625 192.209 328.698 192.258C328.771 192.331 328.771 192.428 328.722 192.501L314.121 209.145C314.097 209.194 314.048 209.218 314 209.218Z" fill="#21252B"/>
<path d="M327.646 201.362C331.09 197.319 332.121 192.545 329.949 190.699C327.775 188.853 323.219 190.633 319.773 194.676C316.329 198.719 315.298 203.493 317.469 205.339C319.644 207.186 324.199 205.405 327.646 201.362Z" fill="#FFBD3A"/>
<path opacity="0.3" d="M330.087 190.822L317.388 205.276C317.412 205.301 317.436 205.325 317.461 205.349C319.63 207.199 324.188 205.398 327.625 201.359C331.013 197.392 332.086 192.745 330.087 190.822Z" fill="black"/>
<path d="M305.024 219.931C306.777 218.241 305.636 214.223 302.474 210.956C299.313 207.688 295.33 206.41 293.578 208.099C291.825 209.789 292.968 213.808 296.127 217.075C299.289 220.342 303.272 221.621 305.024 219.931Z" fill="#FFBD3A"/>
<path opacity="0.3" d="M293.451 208.196L305.077 219.852C305.053 219.876 305.029 219.901 305.029 219.925C303.274 221.604 299.301 220.339 296.132 217.054C293.012 213.866 291.866 209.948 293.451 208.196Z" fill="black"/>
<path d="M320.175 179.526C320.416 174.223 318.354 169.821 315.57 169.695C312.787 169.569 310.335 173.765 310.093 179.068C309.852 184.372 311.912 188.773 314.695 188.899C317.479 189.025 319.934 184.829 320.175 179.526Z" fill="#FFBD3A"/>
<path opacity="0.3" d="M310.074 179.069C310.318 173.764 312.78 169.579 315.559 169.701L314.681 188.9C311.902 188.778 309.83 184.374 310.074 179.069Z" fill="black"/>
<path d="M323.749 222.93C325.867 219.624 326.096 215.994 324.258 214.82C322.42 213.648 319.215 215.376 317.097 218.682C314.979 221.988 314.752 225.619 316.587 226.792C318.425 227.965 321.631 226.236 323.749 222.93Z" fill="#FFBD3A"/>
<path opacity="0.3" d="M317.096 218.684C315.024 221.92 314.756 225.473 316.462 226.714L324.262 214.815L323.799 214.596C321.922 213.915 319.046 215.642 317.096 218.684Z" fill="black"/>
<path d="M311.611 239.222C311.514 239.222 311.441 239.149 311.441 239.076L307.272 196.103C307.272 196.006 307.321 195.933 307.419 195.908C307.516 195.908 307.589 195.957 307.614 196.054L311.782 239.027C311.806 239.149 311.733 239.222 311.611 239.222C311.636 239.222 311.636 239.222 311.611 239.222Z" fill="#21252B"/>
<path d="M308.326 205.53C310.627 205.253 312.058 201.469 311.527 197.08C310.995 192.69 308.699 189.357 306.401 189.634C304.102 189.912 302.671 193.696 303.203 198.085C303.734 202.475 306.028 205.808 308.326 205.53Z" fill="#FFBD3A"/>
<path opacity="0.3" d="M303.178 198.098C302.641 193.718 304.079 189.922 306.395 189.654L308.321 205.544C306.005 205.812 303.714 202.478 303.178 198.098Z" fill="black"/>
<path d="M308.345 255.014H317.022C318.655 255.014 319.972 253.7 319.972 252.069V240.608H305.396V252.069C305.396 253.7 306.712 255.014 308.345 255.014Z" fill="#868A91"/>
<path d="M320.289 239.051H305.079C304.664 239.051 304.299 239.391 304.299 239.829C304.299 240.243 304.64 240.608 305.079 240.608H320.289C320.703 240.608 321.069 240.267 321.069 239.829C321.069 239.416 320.703 239.051 320.289 239.051Z" fill="#868A91"/>
<path d="M319.971 240.608H306.711C306.297 240.608 305.931 240.267 305.931 239.829C305.931 239.416 306.272 239.051 306.711 239.051H305.102C304.688 239.051 304.322 239.391 304.322 239.829C304.322 240.243 304.664 240.608 305.102 240.608H305.419V240.851V252.093C305.419 253.724 306.735 255.038 308.369 255.038H313C313.073 255.038 313.097 255.038 313.097 255.038C311.05 255.038 309.27 253.578 308.88 251.558L306.784 240.851H319.995V240.608H319.971Z" fill="#61656D"/>
<path d="M196 53.1445H161.07V82.1012H196V53.1445Z" fill="#FFBD3A"/>
<path opacity="0.8" d="M196 53.1445H161.07V82.1012H196V53.1445Z" fill="white"/>
<path d="M193.513 55.748H163.556V79.4974H193.513V55.748Z" fill="white"/>
<path d="M163.556 71.491L166.822 68.9847C170.259 66.3567 175.012 66.2593 178.546 68.7657L181.252 66.5027C184.762 63.5827 189.832 63.4367 193.488 66.1863L193.513 66.2107V79.4723H163.556V71.491Z" fill="#FFBD3A"/>
<path opacity="0.5" d="M163.556 71.491L166.822 68.9847C170.259 66.3567 175.012 66.2593 178.546 68.7657L181.252 66.5027C184.762 63.5827 189.832 63.4367 193.488 66.1863L193.513 66.2107V79.4723H163.556V71.491Z" fill="white"/>
<path d="M177.376 64.2404C178.588 64.2404 179.57 63.26 179.57 62.0504C179.57 60.8407 178.588 59.8604 177.376 59.8604C176.165 59.8604 175.183 60.8407 175.183 62.0504C175.183 63.26 176.165 64.2404 177.376 64.2404Z" fill="#B2B6BB"/>
<path d="M179.133 68.3038L176.427 70.5181L176.208 70.1775L178.792 68.0361L179.133 68.3038Z" fill="white"/>
<path d="M161.07 53.1445H160.314V82.1012H161.07V53.1445Z" fill="#B2B6BB"/>
<path d="M86.4588 171.94H70.1032C69.64 171.94 69.2744 171.575 69.2744 171.112C69.2744 170.65 69.64 170.285 70.1032 170.285H86.4588V171.94Z" fill="#B2B6BB"/>
<path d="M145.714 171.137H72.2236V240.024H145.714V171.137Z" fill="#B2B6BB"/>
<path d="M216.964 171.137H88.2148V240.024H216.964V171.137Z" fill="#DADDDF"/>
<path d="M90.7725 176.977H214.597V236.155H90.7725V176.977ZM214.256 177.342H91.1625V235.79H214.256V177.342Z" fill="#B2B6BB"/>
<path d="M218.863 171.94H86.4332C85.9701 171.94 85.6045 171.575 85.6045 171.112C85.6045 170.65 85.9701 170.285 86.4332 170.285H218.838C219.301 170.285 219.667 170.65 219.667 171.112C219.667 171.575 219.301 171.94 218.863 171.94Z" fill="#DADDDF"/>
<path d="M214.597 215.982H90.7725V216.347H214.597V215.982Z" fill="#B2B6BB"/>
<path d="M214.597 196.395H90.7725V196.76H214.597V196.395Z" fill="#B2B6BB"/>
<path d="M155.927 183.425C156.627 183.425 157.194 182.859 157.194 182.16C157.194 181.461 156.627 180.895 155.927 180.895C155.227 180.895 154.659 181.461 154.659 182.16C154.659 182.859 155.227 183.425 155.927 183.425Z" fill="#B2B6BB"/>
<path opacity="0.15" d="M155.464 182.16C155.464 181.6 155.83 181.138 156.318 180.968C156.196 180.919 156.049 180.895 155.903 180.895C155.196 180.895 154.636 181.454 154.636 182.16C154.636 182.866 155.196 183.425 155.903 183.425C156.049 183.425 156.171 183.401 156.318 183.352C155.83 183.182 155.464 182.72 155.464 182.16Z" fill="black"/>
<path d="M155.927 202.746C156.627 202.746 157.194 202.179 157.194 201.48C157.194 200.781 156.627 200.215 155.927 200.215C155.227 200.215 154.659 200.781 154.659 201.48C154.659 202.179 155.227 202.746 155.927 202.746Z" fill="#B2B6BB"/>
<path opacity="0.15" d="M155.464 201.48C155.464 200.921 155.83 200.458 156.318 200.288C156.196 200.239 156.049 200.215 155.903 200.215C155.196 200.215 154.636 200.775 154.636 201.48C154.636 202.186 155.196 202.746 155.903 202.746C156.049 202.746 156.171 202.721 156.318 202.673C155.83 202.502 155.464 202.016 155.464 201.48Z" fill="black"/>
<path d="M155.927 222.309C156.627 222.309 157.194 221.743 157.194 221.044C157.194 220.345 156.627 219.778 155.927 219.778C155.227 219.778 154.659 220.345 154.659 221.044C154.659 221.743 155.227 222.309 155.927 222.309Z" fill="#B2B6BB"/>
<path opacity="0.15" d="M155.464 221.044C155.464 220.484 155.83 220.022 156.318 219.851C156.196 219.803 156.049 219.778 155.903 219.778C155.196 219.778 154.636 220.338 154.636 221.044C154.636 221.749 155.196 222.309 155.903 222.309C156.049 222.309 156.171 222.285 156.318 222.236C155.83 222.09 155.464 221.603 155.464 221.044Z" fill="black"/>
<path d="M85.6309 173.643L88.2146 171.939H216.988V172.718L85.6309 173.643Z" fill="#B2B6BB"/>
<path d="M75.4661 240.024L74.1986 254.065C74.1011 254.576 74.4911 255.062 75.003 255.062C75.3442 255.062 75.6611 254.843 75.783 254.503L79.4636 240.024H75.4661Z" fill="#DADDDF"/>
<path d="M75.9527 248.176L77.4883 247.811L79.4627 240.024H75.4652L74.1977 254.065C74.1245 254.454 74.3439 254.843 74.6852 254.989L75.9527 248.176Z" fill="#B2B6BB"/>
<path d="M89.8226 240.024L88.5551 254.065C88.4576 254.576 88.8476 255.062 89.3594 255.062C89.7007 255.062 90.0176 254.843 90.1394 254.503L93.8201 240.024H89.8226Z" fill="#DADDDF"/>
<path d="M91.1642 241.557L93.4555 241.119L93.8455 240H89.848L88.5805 254.04C88.5073 254.43 88.7267 254.819 89.068 254.965L91.1642 241.557Z" fill="#B2B6BB"/>
<path d="M199.753 240.024L201.021 254.065C201.118 254.576 200.728 255.062 200.216 255.062C199.875 255.062 199.558 254.843 199.436 254.503L195.756 240.024H199.753Z" fill="#DADDDF"/>
<path d="M199.046 247.495L200.411 247.154L199.753 240.024H195.756L199.436 254.503C199.558 254.843 199.875 255.062 200.216 255.062C200.241 255.062 200.241 255.062 200.265 255.062L199.046 247.495Z" fill="#B2B6BB"/>
<path d="M214.499 240.024L215.767 254.065C215.864 254.576 215.474 255.062 214.963 255.062C214.621 255.062 214.304 254.843 214.183 254.503L210.502 240.024H214.499Z" fill="#DADDDF"/>
<path d="M212.939 241.241L214.694 240.925L214.499 240.024H210.502L214.183 254.503C214.304 254.843 214.621 255.062 214.963 255.062C214.987 255.062 214.987 255.062 215.011 255.062L212.939 241.241Z" fill="#B2B6BB"/>
<path d="M169.287 147.168H184.96C185.13 147.168 185.277 147.314 185.301 147.484L185.325 148.02C185.325 148.19 185.204 148.336 185.033 148.336H169.36C169.189 148.336 169.043 148.19 169.019 148.02L168.994 147.484C168.994 147.29 169.116 147.168 169.287 147.168Z" fill="#21252B"/>
<path d="M178.109 147.168H213.575C213.745 147.168 213.891 147.314 213.916 147.484L213.94 148.02C213.94 148.19 213.818 148.336 213.648 148.336H178.182C178.011 148.336 177.865 148.19 177.841 148.02L177.816 147.484C177.816 147.29 177.938 147.168 178.109 147.168Z" fill="#3F4249"/>
<path d="M213.135 147.387H176.987C176.938 147.387 176.865 147.338 176.865 147.29C176.865 147.241 176.914 147.192 176.963 147.192H213.111C213.16 147.192 213.233 147.241 213.233 147.29C213.233 147.338 213.184 147.387 213.135 147.387Z" fill="#21252B"/>
<path d="M178.037 147.168H183.57C183.984 147.168 184.35 146.876 184.399 146.438L186.324 123.857C186.398 123.322 185.934 122.811 185.398 122.811H179.865C179.451 122.811 179.085 123.103 179.036 123.541L177.111 146.122C177.013 146.657 177.476 147.168 178.037 147.168Z" fill="#21252B"/>
<path d="M178.815 147.168H213.111C213.525 147.168 213.891 146.876 213.939 146.438L215.865 123.857C215.938 123.322 215.475 122.811 214.939 122.811H180.643C180.229 122.811 179.863 123.103 179.814 123.541L177.889 146.122C177.816 146.657 178.254 147.168 178.815 147.168Z" fill="#3F4249"/>
<path opacity="0.6" d="M198.266 133.395C198.071 133.882 198.339 134.295 198.851 134.32C198.875 134.32 198.899 134.32 198.924 134.32C198.387 134.977 197.534 135.415 196.779 135.39C195.731 135.366 195.194 134.514 195.584 133.468C195.974 132.422 197.144 131.594 198.192 131.619C198.875 131.643 199.338 131.984 199.46 132.519C198.972 132.543 198.436 132.908 198.266 133.395Z" fill="black"/>
<path d="M134.161 149.601C137.574 119.452 131.431 101.032 129.262 94.6805L132.699 93.7559L144.057 93.8532L145.495 94.3642C145.788 100.01 149.834 125.316 153.734 149.577H134.161V149.601Z" fill="white"/>
<path d="M150.59 249.757L166.409 250.146L160.096 245.645C159.048 244.89 158.39 243.698 158.341 242.408L158.122 237.469L149.518 237.493L150.59 249.757Z" fill="#FC9D9D"/>
<path opacity="0.15" d="M152.345 243.99V243.893C152.296 243.333 152.686 242.847 153.222 242.774L158.268 242.044L158.219 241.046H149.785L150.541 249.417L157.439 248.662L155.172 247.762C153.588 247.129 152.491 245.669 152.345 243.99Z" fill="black"/>
<path d="M122.096 249.465H129.213L130.529 237.444L122.12 237.469L122.096 249.465Z" fill="#FC9D9D"/>
<path opacity="0.15" d="M123.874 247.445L124.045 243.747C124.069 243.26 124.435 242.871 124.922 242.798L130.041 242.019L130.163 240.997L122.144 241.021L122.119 249.538L123.874 247.445Z" fill="black"/>
<path d="M121.632 142.764V241.046H130.87L138.914 160.916C138.962 160.381 139.401 159.992 139.937 159.992C140.449 159.992 140.888 160.381 140.937 160.916L149.492 241.046H158.731L155.391 142.764H121.632Z" fill="#FFBD3A"/>
<path opacity="0.2" d="M121.632 142.764V241.046H130.87L138.914 160.916C138.962 160.381 139.401 159.992 139.937 159.992C140.449 159.992 140.888 160.381 140.937 160.916L149.492 241.046H158.731L155.391 142.764H121.632Z" fill="white"/>
<path d="M122.632 245.231L122.851 245.012C124.509 243.357 127.361 243.382 128.97 245.085L129.091 245.231C129.506 245.669 129.725 246.229 129.725 246.788V247.713C129.725 248.248 129.798 248.784 129.969 249.295L130.725 251.801C130.92 252.409 131.017 253.042 131.017 253.675V253.991C131.017 254.478 130.578 254.867 130.066 254.867H121.316C120.78 254.867 120.365 254.478 120.365 253.991V253.869C120.365 253.139 120.487 252.409 120.731 251.704L121.608 249.246C121.803 248.686 121.925 248.102 121.925 247.494L121.95 246.788C121.974 246.229 122.218 245.669 122.632 245.231Z" fill="#3F4249"/>
<path d="M121.388 241.046H131.235L131.43 239.026H121.412L121.388 241.046Z" fill="#FFBD3A"/>
<path opacity="0.15" d="M121.388 241.046H125.507L125.605 239.026H121.412L121.388 241.046Z" fill="black"/>
<path opacity="0.5" d="M120.365 253.869V253.991C120.365 254.478 120.804 254.867 121.316 254.867H130.066C130.603 254.867 131.017 254.478 131.017 253.991V253.675C131.017 253.553 131.017 253.431 130.993 253.31H120.365C120.365 253.48 120.365 253.675 120.365 253.869Z" fill="black"/>
<path d="M149.494 246.959V253.115C149.494 254.113 150.299 254.916 151.298 254.916H172.26C172.675 254.916 173.016 254.575 173.016 254.162C173.016 252.702 172.065 251.388 170.676 250.925L165.947 249.368L159.951 244.72C159.342 244.234 158.464 244.258 157.855 244.769L155.198 247.032C154.808 247.373 154.272 247.47 153.784 247.324L150.42 246.278C149.933 246.156 149.494 246.497 149.494 246.959Z" fill="#3F4249"/>
<path d="M151.297 254.916H172.259C172.674 254.916 173.015 254.575 173.015 254.162C173.015 253.894 172.991 253.651 172.918 253.407H149.518C149.664 254.259 150.395 254.916 151.297 254.916Z" fill="black"/>
<path d="M159.827 247.178C159.778 247.178 159.73 247.154 159.705 247.129C159.632 247.056 159.632 246.935 159.705 246.862L160.973 245.499C161.046 245.426 161.168 245.426 161.241 245.499C161.314 245.572 161.314 245.694 161.241 245.767L159.973 247.129C159.925 247.154 159.876 247.178 159.827 247.178Z" fill="white"/>
<path d="M160.826 247.956C160.777 247.956 160.729 247.932 160.704 247.908C160.631 247.835 160.631 247.713 160.704 247.64L161.972 246.277C162.045 246.204 162.167 246.204 162.24 246.277C162.313 246.35 162.313 246.472 162.24 246.545L160.972 247.908C160.924 247.932 160.875 247.956 160.826 247.956Z" fill="white"/>
<path d="M161.828 248.736C161.779 248.736 161.731 248.711 161.706 248.687C161.633 248.614 161.633 248.492 161.706 248.419L162.974 247.057C163.047 246.984 163.169 246.984 163.242 247.057C163.315 247.13 163.315 247.251 163.242 247.324L161.974 248.687C161.95 248.711 161.901 248.736 161.828 248.736Z" fill="white"/>
<path d="M127.508 247.3C127.484 247.3 127.435 247.3 127.41 247.275C125.753 246.448 124.193 247.275 124.193 247.275C124.095 247.324 123.949 247.3 123.9 247.178C123.852 247.081 123.876 246.935 123.998 246.886C124.071 246.837 125.753 245.961 127.63 246.886C127.727 246.935 127.776 247.081 127.727 247.178C127.679 247.251 127.605 247.3 127.508 247.3Z" fill="white"/>
<path d="M127.508 248.419C127.484 248.419 127.435 248.419 127.41 248.394C125.729 247.567 124.193 248.394 124.193 248.394C124.095 248.443 123.949 248.419 123.9 248.297C123.852 248.2 123.876 248.054 123.998 248.005C124.071 247.956 125.753 247.08 127.63 248.005C127.727 248.054 127.776 248.2 127.727 248.297C127.679 248.37 127.605 248.419 127.508 248.419Z" fill="white"/>
<path d="M127.508 249.514C127.484 249.514 127.435 249.514 127.41 249.49C125.753 248.663 124.193 249.49 124.193 249.49C124.095 249.539 123.949 249.514 123.9 249.393C123.852 249.295 123.876 249.149 123.998 249.101C124.071 249.052 125.753 248.176 127.63 249.101C127.727 249.149 127.776 249.295 127.727 249.393C127.679 249.466 127.605 249.514 127.508 249.514Z" fill="white"/>
<path opacity="0.15" d="M155.001 239.926L145.885 164.274C145.593 161.841 143.521 160.016 141.083 160.016H139.938C140.449 160.016 140.888 160.405 140.937 160.94L149.444 240.632L155.001 239.926Z" fill="black"/>
<path d="M149.249 241.046H159.072L158.926 239.026H149.054L149.249 241.046Z" fill="#FFBD3A"/>
<path opacity="0.15" d="M149.249 241.046H155.099L154.879 239.026H149.054L149.249 241.046Z" fill="black"/>
<path d="M180.06 101.956L180.913 99.8392C181.23 99.0605 181.62 98.3062 182.107 97.6005L184.301 94.8752C184.35 94.8022 184.423 94.7535 184.52 94.7779C185.203 95.1185 185.276 95.7512 185.032 96.4569C184.862 96.8949 184.52 97.5762 184.277 97.9412C184.082 98.2575 184.399 98.3062 184.52 98.1359L189.322 93.1719C189.542 92.9529 189.907 92.9285 190.127 93.1232C190.37 93.3422 190.419 93.7072 190.2 93.9505C189.371 94.9482 187.47 97.2599 187.47 97.2599L191.248 94.1452C191.492 93.9505 191.857 93.9749 192.077 94.1939C192.345 94.4859 192.32 94.9239 192.052 95.1915C190.955 96.2622 188.445 98.7929 188.445 98.7929L191.809 96.1405C192.052 95.9702 192.369 96.0189 192.564 96.2622C192.759 96.5055 192.735 96.8462 192.515 97.0652C191.54 97.9412 189.688 99.8879 189.688 99.8879L191.809 98.2089C192.004 98.0872 192.272 98.1602 192.394 98.3305C192.515 98.5252 192.491 98.7685 192.345 98.9389L185.008 106.312L182.765 109.451L174.697 108.843L180.06 101.956Z" fill="#FC9D9D"/>
<g opacity="0.15">
<path opacity="0.15" d="M184.715 103.003C184.691 103.003 184.666 103.003 184.642 103.003C184.545 102.979 184.496 102.857 184.52 102.76C185.495 100.059 184.276 98.5743 184.228 98.5256C184.155 98.4526 184.179 98.3309 184.252 98.2579C184.325 98.1849 184.447 98.2093 184.52 98.2823C184.569 98.3553 185.934 99.9856 184.886 102.906C184.886 102.954 184.813 103.003 184.715 103.003Z" fill="black"/>
</g>
<path d="M158.024 101.3L165.824 119.842L179.937 102.103L184.739 106.629L170.382 131.011C168.091 134.88 162.436 134.734 160.364 130.719L152.052 114.537L158.024 101.3Z" fill="#21252B"/>
<path d="M143.863 80.5672C143.863 80.5672 133.918 74.3379 133.528 81.9542L133.382 83.9252L132.699 93.9019C132.699 94.1939 132.797 94.4615 132.967 94.6562L138.72 98.5739C138.89 98.6955 139.134 98.6712 139.28 98.5495L143.546 94.9239C143.839 94.6805 143.985 94.2912 143.936 93.9262L143.302 88.0132C143.424 87.5022 143.497 86.9182 143.497 86.2612C143.595 83.2682 143.863 80.5672 143.863 80.5672Z" fill="#FC9D9D"/>
<path d="M144.74 81.0305C146.598 81.0305 148.103 79.5269 148.103 77.6725C148.103 75.8178 146.598 74.3145 144.74 74.3145C142.882 74.3145 141.376 75.8178 141.376 77.6725C141.376 79.5269 142.882 81.0305 144.74 81.0305Z" fill="#3F4249"/>
<path d="M144.984 75.1897C144.984 75.1897 148.518 89.9844 140.913 90.982C134.332 91.858 133.601 81.6137 133.601 81.6137L133.917 74.9707L144.984 75.1897Z" fill="#FC9D9D"/>
<path d="M144.544 76.1142L137.816 76.6009C136.988 76.6739 136.354 77.4039 136.403 78.2312C136.476 79.0586 135.842 79.7886 134.989 79.8616C134.769 79.8859 134.599 80.0806 134.599 80.2996L134.696 81.7839C134.721 81.9786 134.574 82.1489 134.379 82.1489C134.209 82.1732 134.063 82.0516 134.014 81.8812L133.721 80.4699L133.429 80.0076L131.844 80.9809C131.844 80.9809 129.285 77.0389 130.504 73.4376C131.211 71.3936 133.234 70.6636 134.209 70.5419C134.526 70.4932 134.794 70.3229 134.964 70.0552C135.354 69.3982 136.305 68.2546 138.426 68.3276C140.059 68.3762 140.961 69.2766 141.424 69.9822C141.692 70.3959 142.253 70.5662 142.716 70.3472C143.398 70.0309 144.398 69.8606 145.568 70.5662C147.761 71.9532 146.884 75.7492 144.544 76.1142Z" fill="#3F4249"/>
<path opacity="0.15" d="M133.38 84.4124C133.38 84.4124 134.013 84.461 134.355 84.1934L133.282 85.848L133.38 84.4124Z" fill="black"/>
<path d="M133.747 80.4704C133.747 80.4704 133.259 79.0834 131.797 79.7161C130.139 80.4461 130.481 84.1934 133.284 84.4124C134.746 84.5341 134.454 83.6824 134.21 82.5388C133.747 80.4704 133.747 80.4704 133.747 80.4704Z" fill="#FC9D9D"/>
<path opacity="0.3" d="M131.724 80.6897C132.016 80.495 132.284 80.422 132.528 80.4707C132.772 80.5193 132.991 80.6896 133.162 80.9816C133.332 81.2736 133.43 81.6143 133.43 82.0037L133.454 82.32C133.454 82.4173 133.381 82.4903 133.284 82.4903C133.186 82.4903 133.113 82.4173 133.113 82.32L133.089 82.0037C133.089 81.9063 133.04 81.4197 132.869 81.152C132.747 80.9573 132.601 80.8357 132.455 80.787C132.309 80.7627 132.114 80.8113 131.919 80.933C131.845 80.9817 131.724 80.9573 131.675 80.8843C131.626 80.86 131.65 80.7627 131.724 80.6897Z" fill="black"/>
<path d="M144.593 76.4309L143.813 76.5039C143.74 76.5039 143.643 76.4552 143.643 76.3579C143.643 76.2605 143.691 76.1875 143.789 76.1875L144.569 76.1145C144.666 76.1145 144.764 76.0902 144.861 76.0659C145.056 75.9929 145.422 75.8712 145.763 75.6279C145.836 75.5792 145.934 75.6035 145.983 75.6765C146.031 75.7495 146.007 75.8469 145.934 75.8955C145.568 76.1389 145.154 76.3092 144.959 76.3579C144.837 76.3822 144.715 76.4065 144.593 76.4309Z" fill="#FC9D9D"/>
<path opacity="0.15" d="M143.789 92.1745L143.546 89.7899C142.912 90.4469 141.084 91.3959 139.012 90.9092C138.987 90.8849 139.012 90.9092 139.012 90.9092C137.744 90.5929 136.891 89.8872 136.355 89.2545C136.306 89.1815 136.209 89.1815 136.135 89.2302C136.062 89.2789 136.062 89.3762 136.111 89.4492C136.769 90.2035 137.89 91.1039 139.621 91.3229C141.742 92.7342 143.789 92.1745 143.789 92.1745Z" fill="black"/>
<g opacity="0.3">
<path opacity="0.3" d="M141.474 87.9645C141.449 87.9888 141.474 87.9888 141.474 87.9645C140.84 88.0131 140.547 88.0374 140.547 88.0374C140.426 88.0374 140.353 87.9645 140.328 87.8428C140.328 87.7211 140.401 87.6238 140.523 87.6238C140.523 87.6238 140.816 87.5994 141.425 87.5508C141.547 87.5508 141.644 87.6238 141.644 87.7211C141.644 87.8671 141.571 87.9645 141.474 87.9645Z" fill="black"/>
</g>
<g opacity="0.3">
<path opacity="0.3" d="M141.817 87.0891C140.159 87.3325 139.404 86.4321 139.136 85.9941C139.087 85.8968 139.111 85.7995 139.209 85.7265C139.306 85.6778 139.404 85.7022 139.477 85.7995C139.721 86.2375 140.549 87.1865 142.548 86.5295C142.646 86.5052 142.743 86.5538 142.792 86.6512C142.816 86.7485 142.768 86.8458 142.67 86.8945C142.353 86.9918 142.061 87.0648 141.817 87.0891Z" fill="black"/>
</g>
<path d="M139.523 82.7089C139.86 82.7089 140.133 82.4366 140.133 82.1005C140.133 81.7645 139.86 81.4922 139.523 81.4922C139.187 81.4922 138.914 81.7645 138.914 82.1005C138.914 82.4366 139.187 82.7089 139.523 82.7089Z" fill="#21252B"/>
<path d="M139.791 82.0275C139.858 82.0275 139.913 81.973 139.913 81.9058C139.913 81.8387 139.858 81.7842 139.791 81.7842C139.724 81.7842 139.669 81.8387 139.669 81.9058C139.669 81.973 139.724 82.0275 139.791 82.0275Z" fill="white"/>
<path d="M144.35 82.7333C144.686 82.7333 144.959 82.461 144.959 82.1249C144.959 81.7889 144.686 81.5166 144.35 81.5166C144.013 81.5166 143.74 81.7889 143.74 82.1249C143.74 82.461 144.013 82.7333 144.35 82.7333Z" fill="#21252B"/>
<path d="M144.617 82.0519C144.684 82.0519 144.739 81.9974 144.739 81.9303C144.739 81.8631 144.684 81.8086 144.617 81.8086C144.55 81.8086 144.495 81.8631 144.495 81.9303C144.495 81.9974 144.55 82.0519 144.617 82.0519Z" fill="white"/>
<g opacity="0.3">
<path opacity="0.3" d="M142.254 85.605L141.45 85.6536C141.352 85.6536 141.279 85.5806 141.255 85.4833C141.255 85.386 141.328 85.313 141.426 85.2886L142.23 85.24C142.425 85.2156 142.596 85.0453 142.571 84.8506C142.547 84.656 142.376 84.4856 142.181 84.51C142.084 84.51 142.011 84.437 141.986 84.3396C141.962 84.2423 142.059 84.1693 142.157 84.145C142.547 84.1206 142.888 84.4126 142.937 84.802C142.937 85.24 142.644 85.5806 142.254 85.605Z" fill="black"/>
</g>
<path d="M146.08 80.543H143.423H143.057H140.742H140.717H137.719C137.232 80.543 136.842 80.9323 136.842 81.419V82.1003C136.842 83.4143 137.914 84.485 139.231 84.485C140.547 84.485 141.619 83.4143 141.619 82.1003V81.419C141.619 81.2243 141.546 81.0296 141.424 80.8836H142.351C142.229 81.0296 142.18 81.2243 142.18 81.419V82.1003C142.18 83.4143 143.252 84.485 144.569 84.485C145.885 84.485 146.957 83.4143 146.957 82.1003V81.419C146.957 80.9323 146.567 80.543 146.08 80.543ZM141.278 81.419V82.1003C141.278 83.2196 140.376 84.1443 139.255 84.1443C138.134 84.1443 137.207 83.244 137.207 82.1246V81.4433C137.207 81.1513 137.451 80.908 137.744 80.908H140.742H140.766C141.034 80.908 141.278 81.127 141.278 81.419ZM146.616 82.1003C146.616 83.2196 145.714 84.1443 144.593 84.1443C143.472 84.1443 142.546 83.244 142.546 82.1246V81.4433C142.546 81.1513 142.789 80.908 143.082 80.908H143.447H146.104C146.397 80.908 146.641 81.1513 146.641 81.4433L146.616 82.1003Z" fill="#21252B"/>
<g opacity="0.15">
<path opacity="0.15" d="M152.71 145.197H132.015C131.893 145.197 131.82 145.1 131.82 145.002C131.82 144.905 131.918 144.808 132.015 144.808H152.71C152.832 144.808 152.905 144.905 152.905 145.002C152.905 145.1 152.832 145.197 152.71 145.197Z" fill="black"/>
</g>
<path opacity="0.15" d="M144.739 94.1455C144.739 94.1455 145.617 124.416 147.932 144.856H150.906L144.739 94.1455Z" fill="black"/>
<path opacity="0.15" d="M137.988 144.979L125.728 146.633C125.728 146.633 125.411 147.509 125.021 148.799L121.608 150.332V238.978L125.582 239.003L129.189 161.744C139.695 157.997 137.988 144.979 137.988 144.979Z" fill="black"/>
<path opacity="0.15" d="M155.586 158.483C155.611 158.483 155.635 158.459 155.66 158.459L153.88 144.856H147.957L149.03 154.711C149.371 157.85 152.686 159.773 155.586 158.483Z" fill="black"/>
<g opacity="0.15">
<path opacity="0.15" d="M149.442 97.9414H140.009L139.302 98.5497C139.132 98.6957 138.888 98.7201 138.693 98.5741L137.767 97.9414H127.407V99.0121H149.442V97.9414Z" fill="#FFBD3A"/>
<path opacity="0.15" d="M149.442 102.54H127.407V103.611H149.442V102.54Z" fill="#FFBD3A"/>
<path opacity="0.15" d="M149.442 107.164H127.407V108.235H149.442V107.164Z" fill="black"/>
<path opacity="0.15" d="M149.442 111.763H127.407V112.833H149.442V111.763Z" fill="black"/>
<path opacity="0.15" d="M149.442 116.386H127.407V117.456H149.442V116.386Z" fill="black"/>
<path opacity="0.15" d="M149.442 120.985H127.407V122.056H149.442V120.985Z" fill="black"/>
<path opacity="0.15" d="M149.442 125.608H127.407V126.679H149.442V125.608Z" fill="black"/>
<path opacity="0.15" d="M150.539 130.207H127.407V131.278H150.539V130.207Z" fill="black"/>
<path opacity="0.15" d="M151.27 134.831H127.407V135.902H151.27V134.831Z" fill="black"/>
<path opacity="0.15" d="M152.708 139.43H127.407V140.5H152.708V139.43Z" fill="black"/>
</g>
<path d="M120.512 156.196L121.048 123.759L112.955 112.955L112.76 104.049C112.687 100.594 115.1 97.5523 118.489 96.8223L132.139 93.9023C134.04 99.4747 138.915 121.764 137.964 147.436C137.745 153.568 132.65 158.434 126.508 158.434H122.73C121.487 158.459 120.487 157.437 120.512 156.196Z" fill="#21252B"/>
<path opacity="0.4" d="M127.409 126.679L121.047 123.783L120.511 156.22C120.487 157.461 121.486 158.483 122.729 158.483H126.507C126.946 158.483 127.361 158.458 127.775 158.41C127.677 147.338 127.409 126.679 127.409 126.679Z" fill="black"/>
<path d="M158.829 105.169L156.123 158.021C156.099 158.264 155.904 158.459 155.66 158.459H155.221C153.564 158.459 152.15 157.242 151.882 155.612C148.177 131.57 144.984 99.5719 144.716 94.1699L153.418 96.9439C156.245 97.8199 159 101.324 158.829 105.169Z" fill="#21252B"/>
<path d="M155.366 135.415L156.219 124.587H148.492L149.15 135.415C149.175 135.683 149.394 135.902 149.687 135.902H154.83C155.122 135.878 155.342 135.683 155.366 135.415Z" fill="white"/>
<path d="M156.245 123.662H155.392L155.002 122.665C154.978 122.592 154.904 122.567 154.856 122.567H149.664C149.591 122.567 149.542 122.616 149.518 122.665L149.128 123.662H148.469C148.372 123.662 148.299 123.735 148.299 123.833V124.441C148.299 124.538 148.372 124.611 148.469 124.611H156.269C156.367 124.611 156.44 124.538 156.44 124.441V123.833C156.416 123.735 156.343 123.662 156.245 123.662Z" fill="#FFBD3A"/>
<path opacity="0.2" d="M156.245 123.662H155.392L155.002 122.665C154.978 122.592 154.904 122.567 154.856 122.567H149.664C149.591 122.567 149.542 122.616 149.518 122.665L149.128 123.662H148.469C148.372 123.662 148.299 123.735 148.299 123.833V124.441C148.299 124.538 148.372 124.611 148.469 124.611H156.269C156.367 124.611 156.44 124.538 156.44 124.441V123.833C156.416 123.735 156.343 123.662 156.245 123.662Z" fill="white"/>
<path opacity="0.15" d="M155.319 123.468H151.029L151.346 122.567H149.664C149.591 122.567 149.542 122.616 149.518 122.665L149.128 123.662H148.469C148.372 123.662 148.299 123.735 148.299 123.833V124.441C148.299 124.538 148.372 124.611 148.469 124.611H149.859C149.981 124.271 150.127 123.857 150.127 123.857C150.151 123.76 150.249 123.711 150.346 123.711H150.956H155.392L155.319 123.468Z" fill="black"/>
<path opacity="0.15" d="M156.221 124.854L156.245 124.587H148.519L149.177 135.415C149.201 135.683 149.42 135.902 149.713 135.902H150.079L150.347 125.244L156.221 124.854Z" fill="black"/>
<path d="M152.345 132.665C153.96 132.665 155.27 131.401 155.27 129.842C155.27 128.283 153.96 127.02 152.345 127.02C150.73 127.02 149.42 128.283 149.42 129.842C149.42 131.401 150.73 132.665 152.345 132.665Z" fill="#FFBD3A"/>
<path d="M146.202 128.163L148.639 127.02L148.664 127.555C148.688 127.969 149.029 128.285 149.444 128.285L155.684 128.236C156.147 128.236 156.512 128.601 156.512 129.064V129.088C156.512 129.55 156.147 129.94 155.659 129.964C154.855 129.964 153.758 129.988 153.758 129.988L155.659 129.964C156.122 129.964 156.512 130.329 156.512 130.791C156.512 131.254 156.147 131.643 155.684 131.643L153.709 131.667L155.757 131.643C156.195 131.643 156.537 131.984 156.561 132.422C156.561 132.835 156.244 133.176 155.83 133.225C155.001 133.298 153.758 133.395 153.758 133.395L155.976 133.614C156.293 133.638 156.561 133.906 156.561 134.247V134.271C156.561 134.636 156.269 134.928 155.903 134.928C153.319 134.928 140.425 135.269 140.425 135.269L143.057 128.455L144.252 128.528C144.91 128.528 145.592 128.431 146.202 128.163Z" fill="#FC9D9D"/>
<g opacity="0.15">
<path opacity="0.15" d="M155.537 130.134H154.172C154.05 130.134 153.977 130.037 153.977 129.94C153.977 129.842 154.074 129.745 154.172 129.745H155.537C155.658 129.745 155.732 129.842 155.732 129.94C155.732 130.037 155.634 130.134 155.537 130.134Z" fill="black"/>
</g>
<g opacity="0.15">
<path opacity="0.15" d="M155.636 131.839H154.247C154.125 131.839 154.052 131.741 154.052 131.644C154.052 131.547 154.149 131.449 154.247 131.449H155.636C155.758 131.449 155.831 131.547 155.831 131.644C155.831 131.741 155.734 131.839 155.636 131.839Z" fill="black"/>
</g>
<path d="M112.783 103.441V131.449C112.783 134.417 115.294 136.753 118.243 136.583L144.324 135.123V128.48L124.239 127.239L124.776 102.979" fill="#21252B"/>
<path opacity="0.4" d="M119.171 133.347C117.148 133.42 115.368 131.911 115.368 129.405L115.734 103.076C115.905 100.302 116.733 98.1611 119.025 96.6768L118.513 96.7984C114.978 97.5528 112.59 100.765 112.785 104.269V131.425C112.785 134.393 115.295 136.754 118.269 136.535L144.326 135.123V133.59L119.171 133.347Z" fill="black"/>
<path opacity="0.4" d="M137.694 128.09L137.67 127.677L127.384 127.02L124.971 107.699C124.946 107.529 124.702 107.529 124.678 107.723L124.264 127.263L127.432 127.458L137.694 128.09Z" fill="black"/>
<path opacity="0.15" d="M179.937 102.103L185.372 105.899L184.982 106.288L184.738 106.629L179.937 102.103Z" fill="black"/>
<path opacity="0.15" d="M144.326 128.48L144.96 132.52C145.082 133.323 145.764 133.907 146.569 133.931L156.587 134.199C156.587 134.199 156.587 134.807 155.929 134.856L144.326 135.099V128.48Z" fill="black"/>
<path opacity="0.4" d="M162.459 128.432L158.462 120.937L158.754 113.394C158.754 113.272 158.681 113.175 158.559 113.175C158.437 113.175 158.34 113.248 158.34 113.369L158.047 120.913C158.047 120.937 158.023 120.961 158.023 120.986L157.73 125.585L160.363 130.719C162.41 134.734 168.09 134.88 170.381 131.011L170.576 130.67C167.895 132.349 164.068 131.571 162.459 128.432Z" fill="black"/>
<path opacity="0.4" d="M164.947 121.009L165.824 119.841L164.654 117.067L164.41 120.815C164.386 121.107 164.776 121.253 164.947 121.009Z" fill="black"/>
<path d="M113.588 152.011H118.39L103.984 254.916H102.107L113.588 152.011Z" fill="#61656D"/>
<path d="M301.423 254.916H299.546L285.141 152.011H289.942L301.423 254.916Z" fill="#61656D"/>
<path opacity="0.5" d="M102.107 254.916H102.912L115.27 154.906C115.367 154.201 115.928 153.641 116.635 153.592L118.195 153.446L118.39 152.035H113.588L102.107 254.916Z" fill="black"/>
<path opacity="0.5" d="M300.229 254.916L287.407 155.004C287.31 154.274 287.797 153.568 288.529 153.422L290.064 153.106L289.942 151.986H285.141L299.546 254.892H300.229V254.916Z" fill="black"/>
<path d="M98.842 152.011H103.644L89.2382 254.916H87.3613L98.842 152.011Z" fill="#61656D"/>
<path d="M286.674 254.916H284.797L270.392 152.011H275.193L286.674 254.916Z" fill="#61656D"/>
<path opacity="0.5" d="M87.3613 254.916H88.1657L92.9676 218.441C92.9676 218.441 92.9676 218.441 94.4545 217.589L103.424 153.422L103.619 152.011H98.8176L87.3613 254.916Z" fill="black"/>
<path opacity="0.5" d="M285.481 254.916L280.801 218.733C282.483 217.565 282.483 217.565 282.483 217.565L275.17 151.986H270.368L284.774 254.892H285.481V254.916Z" fill="black"/>
<path d="M278.436 128.821C278.665 128.821 278.85 128.635 278.85 128.407C278.85 128.178 278.665 127.993 278.436 127.993C278.207 127.993 278.021 128.178 278.021 128.407C278.021 128.635 278.207 128.821 278.436 128.821Z" fill="white"/>
<path d="M237.364 101.324L229.174 117.701L218.01 117.482L217.011 122.786L229.588 125.268C231.636 125.633 233.708 124.806 234.902 123.127L241.093 114.464" fill="#FFBD3A"/>
<path d="M204.385 115.292L201.435 114.902L197.925 115.924C197.633 116.022 197.511 116.314 197.682 116.557C197.803 116.727 198.023 116.8 198.242 116.752L201.606 116.119L203.702 116.8L201.606 116.119L198.681 116.946C198.437 117.019 198.34 117.263 198.437 117.457C198.535 117.628 198.754 117.701 198.949 117.652L201.898 117.092L204.945 118.041L201.898 117.092L199.802 117.944C199.656 118.017 199.607 118.187 199.705 118.309C199.778 118.406 199.924 118.455 200.07 118.406L202.508 117.822L205.384 118.528L204.385 115.292Z" fill="#966363"/>
<path opacity="0.15" d="M204.385 115.292L201.435 114.902L197.925 115.924C197.633 116.022 197.511 116.314 197.682 116.557C197.803 116.727 198.023 116.8 198.242 116.752L201.606 116.119L203.702 116.8L201.606 116.119L198.681 116.946C198.437 117.019 198.34 117.263 198.437 117.457C198.535 117.628 198.754 117.701 198.949 117.652L201.898 117.092L204.945 118.041L201.898 117.092L199.802 117.944C199.656 118.017 199.607 118.187 199.705 118.309C199.778 118.406 199.924 118.455 200.07 118.406L202.508 117.822L205.384 118.528L204.385 115.292Z" fill="black"/>
<path d="M204.191 114.342L208.529 116.849C208.773 116.995 209.066 117.068 209.358 117.092L218.011 117.481L217.012 122.786L210.089 121.423C209.846 121.375 209.602 121.375 209.382 121.423L208.993 121.496C207.481 121.886 205.994 121.715 204.727 120.961H204.702C204.532 120.864 204.337 120.791 204.118 120.766C203.362 120.693 201.534 120.499 201.534 120.499C201.412 120.499 201.339 120.401 201.339 120.304C201.339 119.842 201.729 119.428 202.289 119.355L203.581 119.185C204.264 119.087 204.654 118.455 204.361 117.919L203.069 115.656C202.996 115.51 202.85 115.413 202.679 115.364L198.097 114.172C197.902 114.123 197.756 113.953 197.804 113.783C197.829 113.564 198.072 113.418 198.316 113.442C199.486 113.588 203.045 114.099 203.874 114.245C203.996 114.245 204.093 114.269 204.191 114.342Z" fill="#966363"/>
<path opacity="0.15" d="M229.199 117.701L230.662 117.749C231.003 117.749 231.32 117.555 231.442 117.214L233.855 108.405L229.199 117.701Z" fill="black"/>
<path d="M263.421 240.657C263.129 241.703 263.08 242.117 263.104 243.163L263.08 250.171C263.129 251.388 263.47 252.58 264.079 253.651L264.226 253.894C264.591 254.527 265.249 254.892 265.981 254.892H268.004C268.93 254.892 269.734 254.259 269.954 253.359C270.222 252.313 270.246 251.242 270.051 250.196L268.345 242.677C268.223 242.044 268.053 241.314 267.736 240.633H263.421V240.657Z" fill="#FFBD3A"/>
<path d="M234 210.191L230.466 237.299C230.32 238.175 230.027 239.002 229.613 239.781L223.812 250.682L225.177 252.531L230.49 249.879L235.219 241.362C235.195 239.902 235.414 238.467 235.853 237.08L243.165 210.191H234Z" fill="#966363"/>
<path opacity="0.15" d="M230.49 241.776C230.905 240.997 231.733 239.099 231.855 238.223L235.682 217.223C235.877 216.201 236.584 215.325 237.535 214.936L242.385 212.941L242.605 212.138L233.44 214.303L230.441 237.274C230.295 238.15 230.003 238.977 229.588 239.756L223.787 250.657L224.616 252.044L230.49 241.776Z" fill="black"/>
<path d="M220.058 252.385L223.812 250.682C225.835 251.023 227.882 250.244 229.174 248.662L235.219 241.362C236.316 243.698 236.706 246.302 236.316 248.833L235.439 254.892H234.756L234.561 248.662C234.537 248.2 233.976 248.005 233.684 248.37L230.003 252.872C228.955 254.162 227.371 254.892 225.713 254.892H219.01C218.571 254.892 218.254 254.429 218.425 254.016C218.766 253.31 219.351 252.702 220.058 252.385Z" fill="#FFBD3A"/>
<path d="M263.129 237.493C263.422 240.024 263.568 242.554 263.519 245.109L263.47 248.151C263.519 249.489 264.616 250.536 265.957 250.536H266.371C267.882 250.536 269.028 249.197 268.833 247.713L268.126 244.112C267.76 242.287 267.638 240.413 267.736 238.564L269.686 203.572L260.204 206.273L263.129 237.493Z" fill="#966363"/>
<path d="M266.906 98.5014L258.887 96.8711L245.822 97.0171L241.02 98.3068C238.022 99.2558 236.535 101.859 236.584 104.998L237.023 107.286L235.779 111.568C235.048 114.342 235.999 115.948 237.924 118.187C238.534 118.893 238.851 119.185 239.094 120.523C239.094 120.523 240.264 124.927 240.484 126.752C241.313 133.882 241.02 139.235 241.02 139.235L265.688 139.187C266.833 139.187 267.321 137.97 266.784 136.972C266.784 136.972 265.103 133.639 264.786 130.816C263.762 121.618 266.394 110.668 266.394 110.668L271.562 104.95C271.708 101.957 269.758 99.1584 266.906 98.5014Z" fill="#FFBD3A"/>
<path d="M241.629 139.211L233.439 214.522L269.612 205.276L269.978 174.299C270.124 162.692 268.734 151.11 265.883 139.868L265.712 139.162L241.629 139.211Z" fill="#3F4249"/>
<g opacity="0.15">
<path opacity="0.15" d="M253.745 129.6C253.672 129.6 253.599 129.551 253.599 129.478C253.574 129.405 253.647 129.308 253.72 129.308L264.031 127.312C264.104 127.288 264.202 127.361 264.202 127.434C264.226 127.507 264.153 127.604 264.08 127.604L253.769 129.6C253.769 129.6 253.769 129.6 253.745 129.6Z" fill="black"/>
</g>
<path d="M249.626 130.037L246.652 129.453L245.994 130.086L246.774 131.01L249.626 130.037Z" fill="#966363"/>
<path opacity="0.15" d="M249.626 130.037L246.652 129.453L245.994 130.086L246.774 131.01L249.626 130.037Z" fill="black"/>
<path opacity="0.15" d="M260.35 207.588L263.128 237.518C263.25 238.564 263.348 239.611 263.396 240.633V240.657C263.494 242.141 263.518 243.626 263.494 245.11L263.445 248.152C263.494 249.441 264.518 250.463 265.785 250.536C264.64 249.636 264.713 248.176 264.688 247.081L262.616 210.824C262.543 209.705 263.177 208.659 264.201 208.196L269.539 205.739L269.563 205.276L260.35 207.588Z" fill="black"/>
<path opacity="0.15" d="M217.986 117.579L216.841 120.012C216.451 120.864 215.525 121.351 214.598 121.205L210.333 120.523C209.991 120.45 209.626 120.475 209.309 120.572C208.431 120.864 206.481 121.375 204.629 120.888C204.653 120.913 204.678 120.913 204.702 120.913H204.726C205.994 121.667 207.481 121.837 208.992 121.448L209.382 121.375C209.626 121.326 209.87 121.326 210.089 121.375L217.011 122.738L217.986 117.579Z" fill="black"/>
<path opacity="0.15" d="M249.09 135.098L253.209 134.222L265.202 133.225L265.324 133.273C265.909 134.952 266.128 135.512 266.591 136.582L264.836 136.655C262.106 136.704 259.376 136.558 256.646 136.242C254.135 135.95 251.6 135.974 249.065 136.339V135.098H249.09Z" fill="black"/>
<path d="M271.246 102.662L268.736 102.832C266.737 106.142 265.542 108.794 265.664 112.639L265.494 114.172L270.344 126.46L258.474 128.723L260.375 133.59L275.877 132.568C278.144 132.422 279.753 129.988 278.924 127.701L271.246 102.662Z" fill="#FFBD3A"/>
<path d="M240.508 141.887L240.776 139.211L265.663 139.138L266.345 141.887H240.508Z" fill="#21252B"/>
<path opacity="0.2" d="M257.376 141.888C252.939 141.888 249.186 145.173 248.601 149.553L240.069 212.819L233.439 214.523L241.313 141.888H257.376Z" fill="black"/>
<path d="M252.99 140.306L243.923 124.66C243.728 124.319 243.289 124.149 242.899 124.295L230.102 128.602C229.615 128.772 229.395 129.307 229.639 129.745L238.195 144.589C238.39 144.905 238.78 145.075 239.17 144.978L252.479 141.474C253.015 141.352 253.259 140.768 252.99 140.306Z" fill="#3F4249"/>
<path opacity="0.8" d="M252.99 140.306L243.923 124.66C243.728 124.319 243.289 124.149 242.899 124.295L230.102 128.602C229.615 128.772 229.395 129.307 229.639 129.745L238.195 144.589C238.39 144.905 238.78 145.075 239.17 144.978L252.479 141.474C253.015 141.352 253.259 140.768 252.99 140.306Z" fill="black"/>
<path d="M252.55 140.476L243.482 124.83C243.287 124.489 242.849 124.319 242.459 124.465L229.662 128.796C229.174 128.966 228.955 129.502 229.199 129.94L237.754 144.783C237.949 145.099 238.339 145.27 238.729 145.172L252.038 141.668C252.55 141.498 252.818 140.914 252.55 140.476Z" fill="#21252B"/>
<path d="M239.316 132.325C239.145 132.13 239.072 131.936 239.145 131.765C238.755 131.619 238.316 131.595 237.975 131.717C237.39 131.911 237.268 132.447 237.707 132.885C238.146 133.323 238.95 133.517 239.535 133.323C239.876 133.201 240.071 132.958 240.071 132.69C239.779 132.641 239.511 132.495 239.316 132.325Z" fill="#3F4249"/>
<path opacity="0.4" d="M231.558 130.48C231.681 130.257 231.514 129.928 231.184 129.746C230.854 129.564 230.487 129.598 230.363 129.821C230.239 130.045 230.407 130.373 230.736 130.555C231.066 130.737 231.434 130.704 231.558 130.48Z" fill="black"/>
<path d="M231.453 130.529C231.577 130.306 231.41 129.977 231.08 129.795C230.75 129.613 230.382 129.647 230.258 129.87C230.135 130.094 230.302 130.422 230.632 130.604C230.962 130.786 231.33 130.753 231.453 130.529Z" fill="#3F4249"/>
<path opacity="0.5" d="M231.243 130.445C231.328 130.292 231.215 130.068 230.991 129.944C230.767 129.821 230.517 129.845 230.432 129.998C230.348 130.15 230.461 130.375 230.685 130.498C230.908 130.622 231.159 130.598 231.243 130.445Z" fill="black"/>
<path opacity="0.4" d="M230.588 130.208C230.515 130.038 230.613 129.892 230.783 129.867C230.759 129.867 230.735 129.867 230.71 129.867C230.491 129.867 230.369 130.013 230.442 130.208C230.515 130.403 230.759 130.549 230.978 130.549C231.003 130.549 231.027 130.549 231.052 130.549C230.857 130.524 230.637 130.378 230.588 130.208Z" fill="black"/>
<path d="M258.449 128.724L251.551 130.038C251.478 130.062 251.38 130.062 251.307 130.062L246.944 129.989C246.481 129.989 246.042 130.062 245.604 130.208L240.558 132.057C240.339 132.13 240.217 132.374 240.29 132.593C240.363 132.836 240.607 132.982 240.826 132.909L245.652 131.644L241.07 134.15C240.85 134.271 240.753 134.539 240.875 134.783C240.997 135.002 241.24 135.099 241.484 135.001L246.164 133.152L241.947 134.807C241.728 134.904 241.606 135.148 241.679 135.391C241.752 135.634 241.996 135.78 242.24 135.707L246.53 134.539L242.825 135.561C242.63 135.61 242.508 135.829 242.557 136.024C242.605 136.218 242.8 136.364 243.02 136.316L252.892 134.223L260.399 133.59L258.449 128.724Z" fill="#966363"/>
<g opacity="0.15">
<path opacity="0.15" d="M241.923 134.977C241.849 134.977 241.801 134.929 241.776 134.88C241.752 134.807 241.776 134.71 241.874 134.685L245.798 133.128C245.871 133.104 245.969 133.128 245.993 133.225C246.018 133.298 245.993 133.396 245.896 133.42L241.971 134.977C241.947 134.977 241.947 134.977 241.923 134.977Z" fill="black"/>
</g>
<g opacity="0.15">
<path opacity="0.15" d="M242.8 135.707C242.727 135.707 242.678 135.658 242.654 135.585C242.629 135.512 242.678 135.415 242.751 135.391L246.456 134.369C246.529 134.344 246.627 134.393 246.651 134.466C246.676 134.539 246.627 134.636 246.554 134.661L242.849 135.683C242.824 135.707 242.824 135.707 242.8 135.707Z" fill="black"/>
</g>
<path opacity="0.15" d="M242.532 136.024C242.581 136.218 242.776 136.364 242.995 136.316L252.867 134.223L260.375 133.59L258.473 128.724L258.742 131.546C258.79 132.106 258.4 132.592 257.864 132.69L252.209 133.614L242.532 136.024Z" fill="black"/>
<path opacity="0.6" d="M258.45 128.724L259.523 128.48L261.546 133.493L260.351 133.59L258.45 128.724Z" fill="black"/>
<path d="M262.617 102.005C262.846 102.005 263.031 101.82 263.031 101.591C263.031 101.363 262.846 101.178 262.617 101.178C262.387 101.178 262.202 101.363 262.202 101.591C262.202 101.82 262.387 102.005 262.617 102.005Z" fill="white"/>
<path d="M252.673 103.393C252.902 103.393 253.088 103.207 253.088 102.979C253.088 102.751 252.902 102.565 252.673 102.565C252.444 102.565 252.259 102.751 252.259 102.979C252.259 103.207 252.444 103.393 252.673 103.393Z" fill="white"/>
<path d="M266.762 130.962C266.991 130.962 267.176 130.777 267.176 130.548C267.176 130.32 266.991 130.135 266.762 130.135C266.533 130.135 266.348 130.32 266.348 130.548C266.348 130.777 266.533 130.962 266.762 130.962Z" fill="white"/>
<path d="M263.006 111.812C263.235 111.812 263.421 111.626 263.421 111.398C263.421 111.17 263.235 110.984 263.006 110.984C262.777 110.984 262.592 111.17 262.592 111.398C262.592 111.626 262.777 111.812 263.006 111.812Z" fill="white"/>
<path d="M272.659 112.079C272.888 112.079 273.073 111.894 273.073 111.666C273.073 111.437 272.888 111.252 272.659 111.252C272.429 111.252 272.244 111.437 272.244 111.666C272.244 111.894 272.429 112.079 272.659 112.079Z" fill="white"/>
<path d="M247.576 109.817C247.806 109.817 247.991 109.631 247.991 109.403C247.991 109.174 247.806 108.989 247.576 108.989C247.347 108.989 247.162 109.174 247.162 109.403C247.162 109.631 247.347 109.817 247.576 109.817Z" fill="white"/>
<path d="M239.144 112.614C239.373 112.614 239.558 112.429 239.558 112.201C239.558 111.972 239.373 111.787 239.144 111.787C238.915 111.787 238.729 111.972 238.729 112.201C238.729 112.429 238.915 112.614 239.144 112.614Z" fill="white"/>
<path d="M235.536 107.918C235.765 107.918 235.951 107.733 235.951 107.504C235.951 107.276 235.765 107.091 235.536 107.091C235.308 107.091 235.122 107.276 235.122 107.504C235.122 107.733 235.308 107.918 235.536 107.918Z" fill="white"/>
<path d="M234.294 120.279C234.523 120.279 234.709 120.094 234.709 119.866C234.709 119.637 234.523 119.452 234.294 119.452C234.065 119.452 233.88 119.637 233.88 119.866C233.88 120.094 234.065 120.279 234.294 120.279Z" fill="white"/>
<path d="M226.955 123.419C227.184 123.419 227.37 123.234 227.37 123.005C227.37 122.777 227.184 122.592 226.955 122.592C226.726 122.592 226.541 122.777 226.541 123.005C226.541 123.234 226.726 123.419 226.955 123.419Z" fill="white"/>
<path d="M221.909 118.942C222.138 118.942 222.324 118.756 222.324 118.528C222.324 118.299 222.138 118.114 221.909 118.114C221.681 118.114 221.495 118.299 221.495 118.528C221.495 118.756 221.681 118.942 221.909 118.942Z" fill="white"/>
<path d="M243.75 100.496C243.979 100.496 244.165 100.311 244.165 100.083C244.165 99.8541 243.979 99.6689 243.75 99.6689C243.521 99.6689 243.336 99.8541 243.336 100.083C243.336 100.311 243.521 100.496 243.75 100.496Z" fill="white"/>
<path d="M254.086 115.048C254.315 115.048 254.501 114.863 254.501 114.634C254.501 114.406 254.315 114.221 254.086 114.221C253.857 114.221 253.672 114.406 253.672 114.634C253.672 114.863 253.857 115.048 254.086 115.048Z" fill="white"/>
<path d="M250.943 127.263C251.172 127.263 251.357 127.078 251.357 126.849C251.357 126.621 251.172 126.436 250.943 126.436C250.714 126.436 250.528 126.621 250.528 126.849C250.528 127.078 250.714 127.263 250.943 127.263Z" fill="white"/>
<path d="M257.473 135.975C257.702 135.975 257.887 135.79 257.887 135.561C257.887 135.333 257.702 135.147 257.473 135.147C257.244 135.147 257.059 135.333 257.059 135.561C257.059 135.79 257.244 135.975 257.473 135.975Z" fill="white"/>
<path d="M245.993 120.596C246.222 120.596 246.407 120.411 246.407 120.182C246.407 119.954 246.222 119.769 245.993 119.769C245.763 119.769 245.578 119.954 245.578 120.182C245.578 120.411 245.763 120.596 245.993 120.596Z" fill="white"/>
<path d="M243.336 130.28C243.565 130.28 243.751 130.095 243.751 129.867C243.751 129.638 243.565 129.453 243.336 129.453C243.107 129.453 242.922 129.638 242.922 129.867C242.922 130.095 243.107 130.28 243.336 130.28Z" fill="white"/>
<path d="M270.467 121.399C270.696 121.399 270.881 121.213 270.881 120.985C270.881 120.756 270.696 120.571 270.467 120.571C270.238 120.571 270.053 120.756 270.053 120.985C270.053 121.213 270.238 121.399 270.467 121.399Z" fill="white"/>
<path d="M260.033 123.199C260.262 123.199 260.447 123.014 260.447 122.786C260.447 122.557 260.262 122.372 260.033 122.372C259.803 122.372 259.618 122.557 259.618 122.786C259.618 123.014 259.803 123.199 260.033 123.199Z" fill="white"/>
<path opacity="0.6" d="M257.595 99.1583L260.764 97.236L258.912 96.8467L245.847 96.9927L244.579 97.3333L247.699 99.1827C250.746 101.008 254.573 100.983 257.595 99.1583Z" fill="black"/>
<path d="M258.863 76.6989C261.083 76.6989 262.885 74.9012 262.885 72.6839C262.885 70.4664 261.083 68.6689 258.863 68.6689C256.642 68.6689 254.841 70.4664 254.841 72.6839C254.841 74.9012 256.642 76.6989 258.863 76.6989Z" fill="#21252B"/>
<path d="M261.154 75.9927C260.203 76.6497 258.96 76.8931 257.766 76.5524C255.621 75.9441 254.402 73.7054 255.011 71.5641C255.06 71.4181 255.109 71.2964 255.158 71.1504C256.961 71.4181 260.106 73.0241 261.154 75.9927Z" fill="#FFBD3A"/>
<path d="M256.89 89.3757C256.695 93.7071 255.403 96.1163 257.816 96.2136C261.667 96.384 264.958 93.0016 265.153 88.6703C265.348 84.339 262.374 80.689 258.498 80.543C257.475 84.2416 257.06 85.0446 256.89 89.3757Z" fill="#21252B"/>
<path d="M255.184 89.6087C255.513 85.8602 252.661 82.5482 248.812 82.2114C244.963 81.8744 241.576 84.6401 241.247 88.3889C240.917 92.1374 243.771 95.4495 247.62 95.7862C251.469 96.123 254.855 93.3573 255.184 89.6087Z" fill="#21252B"/>
<path d="M257.06 86.4323L257.304 95.1923C257.328 95.898 257.816 96.5063 258.498 96.701L259.498 96.9687L257.206 98.38C254.501 100.059 251.064 100.083 248.334 98.453L245.848 96.9687L246.969 96.6523C247.603 96.482 248.066 95.9223 248.139 95.2897L249.285 84.875L257.06 86.4323Z" fill="#966363"/>
<path d="M250.942 92.9044L251.356 92.9288C254.354 93.0504 256.865 90.7388 256.987 87.7701L257.304 80.2024C257.353 79.2048 256.573 78.3774 255.573 78.3288L248.48 78.0124C247.188 77.9638 246.091 78.9614 246.043 80.2511L245.75 87.2835C245.653 90.2521 247.968 92.7828 250.942 92.9044Z" fill="#966363"/>
<path d="M251.526 85.2159C251.851 85.2159 252.111 84.9543 252.111 84.6319C252.111 84.3092 251.851 84.0479 251.526 84.0479C251.202 84.0479 250.941 84.3092 250.941 84.6319C250.941 84.9543 251.202 85.2159 251.526 85.2159Z" fill="#21252B"/>
<path d="M251.284 84.631C251.352 84.631 251.406 84.5765 251.406 84.5094C251.406 84.4422 251.352 84.3877 251.284 84.3877C251.216 84.3877 251.162 84.4422 251.162 84.5094C251.162 84.5765 251.216 84.631 251.284 84.631Z" fill="white"/>
<path d="M246.969 85.2159C247.293 85.2159 247.554 84.9543 247.554 84.6319C247.554 84.3092 247.293 84.0479 246.969 84.0479C246.645 84.0479 246.384 84.3092 246.384 84.6319C246.384 84.9543 246.645 85.2159 246.969 85.2159Z" fill="#21252B"/>
<path d="M246.725 84.6066C246.794 84.6066 246.847 84.5521 246.847 84.4849C246.847 84.4178 246.794 84.3633 246.725 84.3633C246.657 84.3633 246.604 84.4178 246.604 84.4849C246.604 84.5521 246.657 84.6066 246.725 84.6066Z" fill="white"/>
<g opacity="0.3">
<path opacity="0.3" d="M249.088 88.0378L249.868 88.1108C249.966 88.1108 250.039 88.0378 250.063 87.9648C250.063 87.8674 249.99 87.7944 249.917 87.7701L249.137 87.6971C248.942 87.6727 248.796 87.5024 248.82 87.3078C248.845 87.1131 249.015 86.9671 249.21 86.9671C249.308 86.9671 249.381 86.8941 249.405 86.8211C249.405 86.7238 249.332 86.6508 249.259 86.6264C248.869 86.6021 248.528 86.8941 248.503 87.2591C248.406 87.6728 248.698 88.0134 249.088 88.0378Z" fill="black"/>
</g>
<path d="M243.752 83.7308C244.629 83.1468 244.288 81.9788 244.288 81.9788C244.142 81.4922 244.02 80.9812 244.02 80.3972C243.996 78.5965 244.971 77.8908 245.483 77.6475C245.678 77.5502 245.799 77.3798 245.799 77.1852C246.189 71.5642 253.916 70.2258 257.963 73.5838C260.4 75.6278 260.961 77.8908 260.766 80.0078C260.766 80.0078 260.619 80.9568 261.473 81.4192L260.424 81.8572C260.01 83.4145 259.328 84.8502 258.938 85.9695C258.767 86.4562 257.889 84.4608 257.475 84.2418C257.426 84.2175 257.036 84.7528 256.793 85.0935C256.646 85.3125 256.281 85.2882 256.208 85.0205C255.915 84.0715 255.793 83.0738 255.842 82.0762L255.891 81.1758C253.916 80.8838 253.161 79.0102 253.161 79.0102C251.211 81.1758 247.944 80.9325 246.628 80.7378C246.311 80.6892 246.043 80.9325 246.019 81.2488L245.873 84.6312C245.873 84.6312 245.361 84.1445 244.873 83.3172L243.971 83.9498L243.752 83.7308Z" fill="#21252B"/>
<path d="M256.595 88.0627C256.595 88.0627 259.155 88.4764 259.91 85.9944C260.666 83.4881 257.546 82.7581 256.888 85.2887L256.303 88.0627H256.595Z" fill="#966363"/>
<path opacity="0.3" d="M259.229 84.5827C258.961 84.3637 258.717 84.2907 258.473 84.315C258.229 84.3394 258.01 84.4853 257.815 84.753C257.62 85.0207 257.474 85.3613 257.449 85.7263L257.425 85.994C257.401 86.1887 257.742 86.286 257.766 86.0427C257.815 85.7507 257.815 85.7507 257.815 85.7507C257.815 85.6534 257.913 85.191 258.108 84.9477C258.254 84.753 258.4 84.6557 258.546 84.6313C258.693 84.607 258.863 84.68 259.058 84.826C259.131 84.8747 259.229 84.8747 259.302 84.8017C259.326 84.7287 259.302 84.6314 259.229 84.5827Z" fill="black"/>
<path d="M244.263 85.0938C244.165 86.3835 245.14 87.5271 246.432 87.6245C247.724 87.7218 248.869 86.7485 248.967 85.4588C248.991 85.0208 248.918 84.5828 248.723 84.2178C249.211 84.0718 249.674 84.1691 249.893 84.2421C249.796 84.4855 249.723 84.7288 249.698 84.9965C249.601 86.2861 250.576 87.4298 251.868 87.5271C253.159 87.6245 254.305 86.6511 254.403 85.3615C254.5 84.0718 253.525 82.9281 252.233 82.8308C251.307 82.7578 250.478 83.2201 250.039 83.9501C249.796 83.8528 249.235 83.7068 248.577 83.9258C248.187 83.3661 247.553 82.9768 246.822 82.9038C245.506 82.8308 244.36 83.8041 244.263 85.0938ZM249.966 85.0208C250.064 83.9015 251.039 83.0498 252.16 83.1471C253.281 83.2445 254.134 84.2178 254.037 85.3371C253.939 86.4565 252.964 87.3081 251.843 87.2108C250.746 87.1378 249.893 86.1401 249.966 85.0208ZM244.579 85.1181C244.677 83.9988 245.652 83.1471 246.773 83.2445C247.894 83.3418 248.748 84.3151 248.65 85.4345C248.553 86.5538 247.578 87.4055 246.456 87.3081C245.335 87.2108 244.482 86.2375 244.579 85.1181Z" fill="white"/>
<path d="M257.377 87.7222C257.66 87.7222 257.889 87.4935 257.889 87.2112C257.889 86.9289 257.66 86.7002 257.377 86.7002C257.094 86.7002 256.865 86.9289 256.865 87.2112C256.865 87.4935 257.094 87.7222 257.377 87.7222Z" fill="#FFBD3A"/>
<path opacity="0.15" d="M257.157 87.6487C257.474 87.673 257.742 87.454 257.766 87.1377C257.766 87.0404 257.742 86.9187 257.693 86.8457C257.815 86.943 257.888 87.1134 257.888 87.2837C257.864 87.5757 257.62 87.7704 257.328 87.746C257.23 87.746 257.108 87.6974 257.035 87.6244C257.084 87.6244 257.133 87.6244 257.157 87.6487Z" fill="black"/>
<path d="M247.211 81.7599C249.502 81.8329 251.062 81.1273 251.964 80.4946C252.963 79.8376 253.402 79.1563 253.426 79.1076C253.475 79.0346 253.451 78.9373 253.378 78.8886C253.304 78.8399 253.207 78.8643 253.158 78.9373C253.134 78.9616 251.403 81.5653 247.211 81.4436C247.138 81.4436 247.064 81.5166 247.064 81.5896C247.064 81.6626 247.138 81.7356 247.211 81.7599Z" fill="#21252B"/>
<path opacity="0.15" d="M257.108 88.0869H256.279L257.157 89.8389L257.108 88.0869Z" fill="black"/>
<path opacity="0.15" d="M248.259 92.0047C249.088 92.4914 250.039 92.7104 251.038 92.7591C251.258 92.7591 251.477 92.7591 251.696 92.7591C251.769 92.7591 251.867 92.7591 251.94 92.7347C251.964 92.7347 251.964 92.7347 251.989 92.7347C252.111 92.7104 252.233 92.7104 252.379 92.6861C252.428 92.6861 252.476 92.6617 252.525 92.6617C253.378 92.5157 254.012 92.2237 254.426 91.9804C254.499 91.9317 254.597 91.9561 254.646 92.0291C254.694 92.1021 254.67 92.1994 254.597 92.2481C254.061 92.5644 253.232 92.9294 252.111 93.0511C251.526 93.4891 250.526 94.0244 249.259 94.0244C248.844 94.0244 248.43 93.9757 248.04 93.8784L248.259 92.0047Z" fill="black"/>
<path d="M248.651 88.9629C248.578 88.9629 248.529 89.0359 248.553 89.1089C248.846 89.6686 249.406 90.0579 250.064 90.0579C250.723 90.0579 251.283 89.6686 251.576 89.1089C251.6 89.0359 251.576 88.9629 251.478 88.9629H248.651Z" fill="white"/>
<path opacity="0.6" d="M218.01 117.457L219.18 117.481L218.108 123.005L217.011 122.786L218.01 117.457Z" fill="black"/>
<path opacity="0.15" d="M271.391 126.242L270.319 126.436L265.955 115.389L265.59 114.464C265.931 112.883 266.37 110.814 266.662 109.573C266.735 109.281 267.15 109.257 267.223 109.549L272.098 125.025C272.293 125.585 271.952 126.144 271.391 126.242Z" fill="black"/>
<path opacity="0.15" d="M237.925 118.163C236 115.924 235.683 113.71 236.414 110.936L237.194 108.065L237.852 104.974C237.852 104.95 237.852 104.926 237.852 104.926C237.852 104.877 237.804 104.828 237.73 104.804C237.657 104.78 237.56 104.828 237.535 104.926L236.731 108.576L236.341 109.817C236.341 109.817 233.197 114.294 234.172 117.701C234.537 118.942 234.757 119.769 234.001 120.815L232.612 122.835C231.369 123.979 229.516 123.687 229.516 123.687L217.207 121.691L216.987 122.835L228.395 125.074C228.37 125.074 228.37 125.074 228.346 125.074L229.565 125.293C231.32 125.609 233.124 125.025 234.342 123.784C234.537 123.589 234.708 123.395 234.879 123.151L238.169 118.528C238.096 118.382 238.023 118.26 237.925 118.163Z" fill="black"/>
<path d="M284.043 150.185C284.043 151.183 283.239 152.01 282.215 152.01H90.9443C89.945 152.01 89.1162 151.207 89.1162 150.185C89.1162 149.188 89.9206 148.36 90.9443 148.36H282.239C283.239 148.36 284.043 149.188 284.043 150.185Z" fill="#61656D"/>
<path opacity="0.5" d="M284.043 150.185C284.043 151.183 283.239 152.01 282.215 152.01H90.9443C89.945 152.01 89.1162 151.207 89.1162 150.185C89.1162 149.188 89.9206 148.36 90.9443 148.36H282.239C283.239 148.36 284.043 149.188 284.043 150.185Z" fill="black"/>
<path d="M298.399 150.185C298.399 151.183 297.595 152.01 296.571 152.01H125.8C124.8 152.01 123.972 151.207 123.972 150.185C123.972 149.188 124.776 148.36 125.8 148.36H296.571C297.57 148.36 298.399 149.188 298.399 150.185Z" fill="#61656D"/>
<path d="M232.49 66.041H210.528V93.9514H232.49V66.041Z" fill="white"/>
<path d="M229.54 68.8633H213.452V91.1526H229.54V68.8633Z" fill="#DDDDDD"/>
<path d="M209.888 93.9601H210.521V66.0498H209.888V93.9601Z" fill="#DADDDF"/>
<path d="M224.178 83.0501C226.103 83.0501 227.664 81.4921 227.664 79.5705C227.664 77.6486 226.103 76.0908 224.178 76.0908C222.253 76.0908 220.692 77.6486 220.692 79.5705C220.692 81.4921 222.253 83.0501 224.178 83.0501Z" fill="#FFBD3A"/>
<path opacity="0.2" d="M214.867 88.7438L218.499 83.0498L222.131 88.6708L214.867 88.7438Z" fill="black"/>
<path opacity="0.2" d="M223.374 71.2725H215.842V78.7915H223.374V71.2725Z" fill="black"/>
<path d="M233.976 147.873L234.829 137.045H227.103L227.761 147.873C227.785 148.141 228.004 148.36 228.297 148.36H233.44C233.708 148.36 233.952 148.141 233.976 147.873Z" fill="white"/>
<path d="M234.829 136.12H233.976L233.586 135.123C233.562 135.05 233.488 135.025 233.44 135.025H228.272C228.199 135.025 228.15 135.074 228.126 135.123L227.736 136.12H227.078C226.98 136.12 226.907 136.193 226.907 136.291V136.899C226.907 136.996 226.98 137.069 227.078 137.069H234.878C234.975 137.069 235.048 136.996 235.048 136.899V136.291C235 136.193 234.927 136.12 234.829 136.12Z" fill="#FFBD3A"/>
<path opacity="0.2" d="M234.829 136.12H233.976L233.586 135.123C233.562 135.05 233.488 135.025 233.44 135.025H228.272C228.199 135.025 228.15 135.074 228.126 135.123L227.736 136.12H227.078C226.98 136.12 226.907 136.193 226.907 136.291V136.899C226.907 136.996 226.98 137.069 227.078 137.069H234.878C234.975 137.069 235.048 136.996 235.048 136.899V136.291C235 136.193 234.927 136.12 234.829 136.12Z" fill="white"/>
<path opacity="0.15" d="M233.903 135.926H229.613L229.93 135.025H228.272C228.199 135.025 228.15 135.074 228.126 135.123L227.736 136.12H227.078C226.98 136.12 226.907 136.193 226.907 136.291V136.899C226.907 136.996 226.98 137.069 227.078 137.069H228.467C228.589 136.729 228.735 136.315 228.735 136.315C228.76 136.218 228.857 136.169 228.955 136.169H229.564H234L233.903 135.926Z" fill="black"/>
<path opacity="0.15" d="M234.805 137.313L234.829 137.045H227.103L227.761 147.873C227.785 148.141 228.004 148.36 228.297 148.36H228.663L228.931 137.702L234.805 137.313Z" fill="black"/>
<path d="M228.638 142.106C228.638 140.938 229.613 139.989 230.831 139.989C232.05 139.989 233.025 140.938 233.025 142.106" fill="#FFBD3A"/>
<path d="M234.367 142.715H227.444L227.566 144.832H234.196L234.367 142.715Z" fill="#FFBD3A"/>
<path d="M326.187 255.232H58.5983C58.5008 255.232 58.4033 255.159 58.4033 255.037C58.4033 254.916 58.5008 254.843 58.5983 254.843H326.211C326.309 254.843 326.406 254.916 326.406 255.037C326.406 255.159 326.309 255.232 326.187 255.232Z" fill="#B2B6BB"/>
</svg>
