<svg width="486" height="56" viewBox="0 0 486 56" fill="none" xmlns="http://www.w3.org/2000/svg">
<g clip-path="url(#clip0_25877_5543)">
<rect y="13" width="30" height="30" rx="15" fill="#3ECF4C"/>
<path d="M13.0001 30.7799L10.2201 27.9999L9.27344 28.9399L13.0001 32.6666L21.0001 24.6666L20.0601 23.7266L13.0001 30.7799Z" fill="white"/>
</g>
<path d="M42.952 33V23.2H46.578C47.362 23.2 48.0107 23.3307 48.524 23.592C49.0373 23.8533 49.42 24.2127 49.672 24.67C49.924 25.1273 50.05 25.6407 50.05 26.21C50.05 26.7513 49.9287 27.2507 49.686 27.708C49.4433 28.156 49.0653 28.52 48.552 28.8C48.0387 29.0707 47.3807 29.206 46.578 29.206H44.744V33H42.952ZM44.744 27.75H46.466C47.0913 27.75 47.5393 27.6147 47.81 27.344C48.09 27.064 48.23 26.686 48.23 26.21C48.23 25.7247 48.09 25.3467 47.81 25.076C47.5393 24.796 47.0913 24.656 46.466 24.656H44.744V27.75ZM52.5799 24.978C52.2532 24.978 51.9826 24.88 51.7679 24.684C51.5626 24.488 51.4599 24.2407 51.4599 23.942C51.4599 23.6433 51.5626 23.4007 51.7679 23.214C51.9826 23.018 52.2532 22.92 52.5799 22.92C52.9066 22.92 53.1726 23.018 53.3779 23.214C53.5926 23.4007 53.6999 23.6433 53.6999 23.942C53.6999 24.2407 53.5926 24.488 53.3779 24.684C53.1726 24.88 52.9066 24.978 52.5799 24.978ZM51.6839 33V26.056H53.4759V33H51.6839ZM55.5463 33V22.92H57.3383V33H55.5463ZM60.3354 24.978C60.0087 24.978 59.738 24.88 59.5234 24.684C59.318 24.488 59.2154 24.2407 59.2154 23.942C59.2154 23.6433 59.318 23.4007 59.5234 23.214C59.738 23.018 60.0087 22.92 60.3354 22.92C60.662 22.92 60.928 23.018 61.1334 23.214C61.348 23.4007 61.4554 23.6433 61.4554 23.942C61.4554 24.2407 61.348 24.488 61.1334 24.684C60.928 24.88 60.662 24.978 60.3354 24.978ZM59.4394 33V26.056H61.2314V33H59.4394ZM63.3018 33V22.92H65.0938V27.12C65.3271 26.7373 65.6398 26.4387 66.0318 26.224C66.4331 26 66.8905 25.888 67.4038 25.888C68.2625 25.888 68.9251 26.1587 69.3918 26.7C69.8678 27.2413 70.1058 28.0347 70.1058 29.08V33H68.3278V29.248C68.3278 28.6507 68.2065 28.1933 67.9638 27.876C67.7305 27.5587 67.3571 27.4 66.8438 27.4C66.3398 27.4 65.9198 27.5773 65.5838 27.932C65.2571 28.2867 65.0938 28.7813 65.0938 29.416V33H63.3018ZM75.5973 33V23.2H77.7253L80.8473 29.416L83.9273 23.2H86.0553V33H84.2633V26.238L81.5333 31.6H80.1193L77.3893 26.238V33H75.5973ZM91.4887 33.168C90.7887 33.168 90.168 33.0187 89.6267 32.72C89.0854 32.4213 88.6607 32.0013 88.3527 31.46C88.0447 30.9187 87.8907 30.2933 87.8907 29.584C87.8907 28.8653 88.04 28.226 88.3387 27.666C88.6467 27.106 89.0667 26.672 89.5987 26.364C90.14 26.0467 90.7747 25.888 91.5027 25.888C92.184 25.888 92.786 26.0373 93.3087 26.336C93.8314 26.6347 94.2374 27.0453 94.5267 27.568C94.8254 28.0813 94.9747 28.6553 94.9747 29.29C94.9747 29.3927 94.97 29.5 94.9607 29.612C94.9607 29.724 94.956 29.8407 94.9467 29.962H89.6687C89.706 30.5033 89.8927 30.928 90.2287 31.236C90.574 31.544 90.9894 31.698 91.4747 31.698C91.8387 31.698 92.142 31.6187 92.3847 31.46C92.6367 31.292 92.8234 31.0773 92.9447 30.816H94.7647C94.634 31.2547 94.4147 31.656 94.1067 32.02C93.808 32.3747 93.4347 32.6547 92.9867 32.86C92.548 33.0653 92.0487 33.168 91.4887 33.168ZM91.5027 27.344C91.064 27.344 90.6767 27.47 90.3407 27.722C90.0047 27.9647 89.79 28.338 89.6967 28.842H93.1547C93.1267 28.3847 92.9587 28.0207 92.6507 27.75C92.3427 27.4793 91.96 27.344 91.5027 27.344ZM99.6528 33C98.9248 33 98.3415 32.8227 97.9028 32.468C97.4642 32.1133 97.2448 31.4833 97.2448 30.578V27.554H96.0548V26.056H97.2448L97.4548 24.194H99.0368V26.056H100.913V27.554H99.0368V30.592C99.0368 30.928 99.1068 31.1613 99.2468 31.292C99.3962 31.4133 99.6482 31.474 100.003 31.474H100.871V33H99.6528ZM105.806 33.168C105.134 33.168 104.527 33.014 103.986 32.706C103.454 32.398 103.029 31.9733 102.712 31.432C102.404 30.8813 102.25 30.2467 102.25 29.528C102.25 28.8093 102.408 28.1793 102.726 27.638C103.043 27.0873 103.468 26.658 104 26.35C104.541 26.042 105.148 25.888 105.82 25.888C106.482 25.888 107.08 26.042 107.612 26.35C108.153 26.658 108.578 27.0873 108.886 27.638C109.203 28.1793 109.362 28.8093 109.362 29.528C109.362 30.2467 109.203 30.8813 108.886 31.432C108.578 31.9733 108.153 32.398 107.612 32.706C107.07 33.014 106.468 33.168 105.806 33.168ZM105.806 31.614C106.272 31.614 106.678 31.4413 107.024 31.096C107.369 30.7413 107.542 30.2187 107.542 29.528C107.542 28.8373 107.369 28.3193 107.024 27.974C106.678 27.6193 106.277 27.442 105.82 27.442C105.344 27.442 104.933 27.6193 104.588 27.974C104.252 28.3193 104.084 28.8373 104.084 29.528C104.084 30.2187 104.252 30.7413 104.588 31.096C104.933 31.4413 105.339 31.614 105.806 31.614ZM114.356 33.168C113.703 33.168 113.119 33.0093 112.606 32.692C112.093 32.3747 111.687 31.9407 111.388 31.39C111.089 30.8393 110.94 30.214 110.94 29.514C110.94 28.814 111.089 28.1933 111.388 27.652C111.687 27.1013 112.093 26.672 112.606 26.364C113.119 26.0467 113.703 25.888 114.356 25.888C114.879 25.888 115.336 25.986 115.728 26.182C116.12 26.378 116.437 26.6533 116.68 27.008V22.92H118.472V33H116.876L116.68 32.006C116.456 32.314 116.157 32.5847 115.784 32.818C115.42 33.0513 114.944 33.168 114.356 33.168ZM114.734 31.6C115.313 31.6 115.784 31.4087 116.148 31.026C116.521 30.634 116.708 30.1347 116.708 29.528C116.708 28.9213 116.521 28.4267 116.148 28.044C115.784 27.652 115.313 27.456 114.734 27.456C114.165 27.456 113.693 27.6473 113.32 28.03C112.947 28.4127 112.76 28.9073 112.76 29.514C112.76 30.1207 112.947 30.62 113.32 31.012C113.693 31.404 114.165 31.6 114.734 31.6ZM123.871 33.168C123.171 33.168 122.55 33.0187 122.009 32.72C121.467 32.4213 121.043 32.0013 120.735 31.46C120.427 30.9187 120.273 30.2933 120.273 29.584C120.273 28.8653 120.422 28.226 120.721 27.666C121.029 27.106 121.449 26.672 121.981 26.364C122.522 26.0467 123.157 25.888 123.885 25.888C124.566 25.888 125.168 26.0373 125.691 26.336C126.213 26.6347 126.619 27.0453 126.909 27.568C127.207 28.0813 127.357 28.6553 127.357 29.29C127.357 29.3927 127.352 29.5 127.343 29.612C127.343 29.724 127.338 29.8407 127.329 29.962H122.051C122.088 30.5033 122.275 30.928 122.611 31.236C122.956 31.544 123.371 31.698 123.857 31.698C124.221 31.698 124.524 31.6187 124.767 31.46C125.019 31.292 125.205 31.0773 125.327 30.816H127.147C127.016 31.2547 126.797 31.656 126.489 32.02C126.19 32.3747 125.817 32.6547 125.369 32.86C124.93 33.0653 124.431 33.168 123.871 33.168ZM123.885 27.344C123.446 27.344 123.059 27.47 122.723 27.722C122.387 27.9647 122.172 28.338 122.079 28.842H125.537C125.509 28.3847 125.341 28.0207 125.033 27.75C124.725 27.4793 124.342 27.344 123.885 27.344Z" fill="#333333" fill-opacity="0.68"/>
<rect x="140" y="26.5" width="74" height="3" fill="#3ECF4C"/>
<g clip-path="url(#clip1_25877_5543)">
<rect x="214" y="13" width="30" height="30" rx="15" fill="#3ECF4C"/>
<path d="M227 30.7799L224.22 27.9999L223.273 28.9399L227 32.6666L235 24.6666L234.06 23.7266L227 30.7799Z" fill="white"/>
</g>
<path d="M256.966 33V23.2H260.984C261.665 23.2 262.239 23.3073 262.706 23.522C263.173 23.7367 263.523 24.0353 263.756 24.418C263.999 24.7913 264.12 25.2253 264.12 25.72C264.12 26.2147 264.013 26.63 263.798 26.966C263.583 27.302 263.299 27.5633 262.944 27.75C262.599 27.9273 262.216 28.03 261.796 28.058L262.02 27.904C262.468 27.9227 262.865 28.044 263.21 28.268C263.565 28.4827 263.84 28.772 264.036 29.136C264.241 29.5 264.344 29.8967 264.344 30.326C264.344 30.8487 264.218 31.3107 263.966 31.712C263.714 32.1133 263.35 32.4307 262.874 32.664C262.398 32.888 261.815 33 261.124 33H256.966ZM258.856 31.46H260.816C261.329 31.46 261.726 31.3433 262.006 31.11C262.286 30.8767 262.426 30.5407 262.426 30.102C262.426 29.6633 262.281 29.3227 261.992 29.08C261.703 28.828 261.301 28.702 260.788 28.702H258.856V31.46ZM258.856 27.288H260.676C261.171 27.288 261.544 27.176 261.796 26.952C262.057 26.728 262.188 26.4107 262.188 26C262.188 25.5987 262.057 25.286 261.796 25.062C261.544 24.8287 261.166 24.712 260.662 24.712H258.856V27.288ZM268.432 33.168C267.844 33.168 267.358 33.0747 266.976 32.888C266.593 32.692 266.308 32.4353 266.122 32.118C265.944 31.7913 265.856 31.432 265.856 31.04C265.856 30.6107 265.963 30.2327 266.178 29.906C266.402 29.5793 266.733 29.3227 267.172 29.136C267.62 28.9493 268.18 28.856 268.852 28.856H270.602C270.602 28.5107 270.555 28.226 270.462 28.002C270.368 27.7687 270.224 27.596 270.028 27.484C269.832 27.372 269.57 27.316 269.244 27.316C268.889 27.316 268.586 27.3953 268.334 27.554C268.091 27.7033 267.942 27.9367 267.886 28.254H266.052C266.098 27.75 266.262 27.316 266.542 26.952C266.831 26.5787 267.209 26.2893 267.676 26.084C268.152 25.8787 268.679 25.776 269.258 25.776C269.92 25.776 270.494 25.888 270.98 26.112C271.465 26.336 271.838 26.658 272.1 27.078C272.361 27.498 272.492 28.016 272.492 28.632V33H270.896L270.686 31.922C270.583 32.1087 270.462 32.2767 270.322 32.426C270.182 32.5753 270.018 32.706 269.832 32.818C269.645 32.93 269.435 33.014 269.202 33.07C268.968 33.1353 268.712 33.168 268.432 33.168ZM268.88 31.712C269.122 31.712 269.337 31.67 269.524 31.586C269.72 31.4927 269.888 31.3713 270.028 31.222C270.168 31.0633 270.275 30.886 270.35 30.69C270.434 30.4847 270.49 30.2653 270.518 30.032V30.018H269.076C268.786 30.018 268.548 30.0553 268.362 30.13C268.184 30.1953 268.054 30.2933 267.97 30.424C267.886 30.5547 267.844 30.704 267.844 30.872C267.844 31.0587 267.886 31.2127 267.97 31.334C268.054 31.4553 268.175 31.5487 268.334 31.614C268.492 31.6793 268.674 31.712 268.88 31.712ZM275.105 36.08L276.813 32.216H276.393L273.565 25.944H275.623L277.639 30.494L279.459 25.944H281.461L277.107 36.08H275.105ZM284.664 33.168C284.076 33.168 283.59 33.0747 283.208 32.888C282.825 32.692 282.54 32.4353 282.354 32.118C282.176 31.7913 282.088 31.432 282.088 31.04C282.088 30.6107 282.195 30.2327 282.41 29.906C282.634 29.5793 282.965 29.3227 283.404 29.136C283.852 28.9493 284.412 28.856 285.084 28.856H286.834C286.834 28.5107 286.787 28.226 286.694 28.002C286.6 27.7687 286.456 27.596 286.26 27.484C286.064 27.372 285.802 27.316 285.476 27.316C285.121 27.316 284.818 27.3953 284.566 27.554C284.323 27.7033 284.174 27.9367 284.118 28.254H282.284C282.33 27.75 282.494 27.316 282.774 26.952C283.063 26.5787 283.441 26.2893 283.908 26.084C284.384 25.8787 284.911 25.776 285.49 25.776C286.152 25.776 286.726 25.888 287.212 26.112C287.697 26.336 288.07 26.658 288.332 27.078C288.593 27.498 288.724 28.016 288.724 28.632V33H287.128L286.918 31.922C286.815 32.1087 286.694 32.2767 286.554 32.426C286.414 32.5753 286.25 32.706 286.064 32.818C285.877 32.93 285.667 33.014 285.434 33.07C285.2 33.1353 284.944 33.168 284.664 33.168ZM285.112 31.712C285.354 31.712 285.569 31.67 285.756 31.586C285.952 31.4927 286.12 31.3713 286.26 31.222C286.4 31.0633 286.507 30.886 286.582 30.69C286.666 30.4847 286.722 30.2653 286.75 30.032V30.018H285.308C285.018 30.018 284.78 30.0553 284.594 30.13C284.416 30.1953 284.286 30.2933 284.202 30.424C284.118 30.5547 284.076 30.704 284.076 30.872C284.076 31.0587 284.118 31.2127 284.202 31.334C284.286 31.4553 284.407 31.5487 284.566 31.614C284.724 31.6793 284.906 31.712 285.112 31.712ZM290.687 33V25.944H292.367L292.549 27.246C292.717 26.938 292.927 26.6767 293.179 26.462C293.44 26.2473 293.734 26.0793 294.061 25.958C294.397 25.8367 294.766 25.776 295.167 25.776V27.778H294.523C294.243 27.778 293.982 27.8107 293.739 27.876C293.506 27.9413 293.3 28.0487 293.123 28.198C292.946 28.338 292.81 28.534 292.717 28.786C292.624 29.038 292.577 29.3553 292.577 29.738V33H290.687Z" fill="#333333" fill-opacity="0.68"/>
<rect x="308" y="26.5" width="74" height="3" fill="#3ECF4C"/>
<g clip-path="url(#clip2_25877_5543)">
<rect x="383.5" y="14.5" width="27" height="27" rx="13.5" stroke="#3ECF4C" stroke-width="3"/>
<rect x="389" y="20" width="16" height="16" rx="8" fill="#3ECF4C"/>
</g>
<path d="M428.34 33.168C427.631 33.168 426.996 33.0467 426.436 32.804C425.885 32.5613 425.447 32.2067 425.12 31.74C424.803 31.2733 424.639 30.7087 424.63 30.046H426.632C426.641 30.3353 426.716 30.5967 426.856 30.83C426.996 31.0633 427.187 31.25 427.43 31.39C427.682 31.5207 427.981 31.586 428.326 31.586C428.625 31.586 428.881 31.5393 429.096 31.446C429.32 31.3433 429.493 31.2033 429.614 31.026C429.735 30.8487 429.796 30.6387 429.796 30.396C429.796 30.116 429.726 29.8827 429.586 29.696C429.455 29.5093 429.269 29.3507 429.026 29.22C428.793 29.0893 428.517 28.9727 428.2 28.87C427.892 28.758 427.565 28.6413 427.22 28.52C426.445 28.268 425.853 27.932 425.442 27.512C425.041 27.092 424.84 26.5367 424.84 25.846C424.84 25.258 424.98 24.754 425.26 24.334C425.549 23.914 425.946 23.592 426.45 23.368C426.954 23.144 427.528 23.032 428.172 23.032C428.835 23.032 429.413 23.1487 429.908 23.382C430.412 23.606 430.809 23.9327 431.098 24.362C431.397 24.7913 431.551 25.2953 431.56 25.874H429.544C429.535 25.6593 429.469 25.4587 429.348 25.272C429.236 25.076 429.077 24.922 428.872 24.81C428.667 24.6887 428.424 24.628 428.144 24.628C427.901 24.6187 427.677 24.656 427.472 24.74C427.276 24.824 427.117 24.95 426.996 25.118C426.884 25.2767 426.828 25.4773 426.828 25.72C426.828 25.9533 426.884 26.1493 426.996 26.308C427.117 26.4667 427.281 26.6067 427.486 26.728C427.691 26.84 427.934 26.9473 428.214 27.05C428.494 27.1433 428.797 27.2413 429.124 27.344C429.609 27.512 430.057 27.7127 430.468 27.946C430.879 28.17 431.205 28.464 431.448 28.828C431.691 29.192 431.812 29.6727 431.812 30.27C431.812 30.7833 431.677 31.2593 431.406 31.698C431.135 32.1367 430.743 32.4913 430.23 32.762C429.726 33.0327 429.096 33.168 428.34 33.168ZM436.961 33.168C436.252 33.168 435.622 33.0187 435.071 32.72C434.53 32.412 434.105 31.9873 433.797 31.446C433.499 30.8953 433.349 30.2607 433.349 29.542C433.349 28.8047 433.499 28.156 433.797 27.596C434.105 27.0267 434.53 26.5833 435.071 26.266C435.613 25.9393 436.243 25.776 436.961 25.776C437.661 25.776 438.273 25.93 438.795 26.238C439.318 26.546 439.724 26.9613 440.013 27.484C440.303 28.0067 440.447 28.5993 440.447 29.262C440.447 29.3553 440.447 29.4627 440.447 29.584C440.447 29.696 440.438 29.8127 440.419 29.934H434.693V28.786H438.543C438.515 28.3287 438.352 27.9693 438.053 27.708C437.764 27.4467 437.4 27.316 436.961 27.316C436.644 27.316 436.35 27.3907 436.079 27.54C435.809 27.68 435.594 27.8993 435.435 28.198C435.286 28.4967 435.211 28.8747 435.211 29.332V29.738C435.211 30.1207 435.281 30.4567 435.421 30.746C435.571 31.026 435.776 31.2453 436.037 31.404C436.299 31.5533 436.602 31.628 436.947 31.628C437.293 31.628 437.577 31.5533 437.801 31.404C438.035 31.2547 438.207 31.0633 438.319 30.83H440.251C440.121 31.2687 439.901 31.6653 439.593 32.02C439.285 32.3747 438.907 32.6547 438.459 32.86C438.011 33.0653 437.512 33.168 436.961 33.168ZM442.195 33V22.92H444.085V33H442.195ZM449.516 33.168C448.806 33.168 448.176 33.0187 447.626 32.72C447.084 32.412 446.66 31.9873 446.352 31.446C446.053 30.8953 445.904 30.2607 445.904 29.542C445.904 28.8047 446.053 28.156 446.352 27.596C446.66 27.0267 447.084 26.5833 447.626 26.266C448.167 25.9393 448.797 25.776 449.516 25.776C450.216 25.776 450.827 25.93 451.35 26.238C451.872 26.546 452.278 26.9613 452.568 27.484C452.857 28.0067 453.002 28.5993 453.002 29.262C453.002 29.3553 453.002 29.4627 453.002 29.584C453.002 29.696 452.992 29.8127 452.974 29.934H447.248V28.786H451.098C451.07 28.3287 450.906 27.9693 450.608 27.708C450.318 27.4467 449.954 27.316 449.516 27.316C449.198 27.316 448.904 27.3907 448.634 27.54C448.363 27.68 448.148 27.8993 447.99 28.198C447.84 28.4967 447.766 28.8747 447.766 29.332V29.738C447.766 30.1207 447.836 30.4567 447.976 30.746C448.125 31.026 448.33 31.2453 448.592 31.404C448.853 31.5533 449.156 31.628 449.502 31.628C449.847 31.628 450.132 31.5533 450.356 31.404C450.589 31.2547 450.762 31.0633 450.874 30.83H452.806C452.675 31.2687 452.456 31.6653 452.148 32.02C451.84 32.3747 451.462 32.6547 451.014 32.86C450.566 33.0653 450.066 33.168 449.516 33.168ZM457.633 33.168C456.989 33.168 456.429 33.0653 455.953 32.86C455.477 32.6547 455.104 32.37 454.833 32.006C454.563 31.642 454.409 31.2313 454.371 30.774H456.247C456.294 30.9513 456.373 31.1147 456.485 31.264C456.597 31.404 456.747 31.516 456.933 31.6C457.12 31.684 457.344 31.726 457.605 31.726C457.857 31.726 458.063 31.6933 458.221 31.628C458.38 31.5533 458.497 31.4553 458.571 31.334C458.655 31.2127 458.697 31.0867 458.697 30.956C458.697 30.76 458.641 30.6107 458.529 30.508C458.417 30.396 458.254 30.3073 458.039 30.242C457.825 30.1767 457.563 30.1113 457.255 30.046C456.919 29.9807 456.588 29.9013 456.261 29.808C455.944 29.7053 455.659 29.5793 455.407 29.43C455.155 29.2807 454.955 29.0893 454.805 28.856C454.656 28.6227 454.581 28.3333 454.581 27.988C454.581 27.568 454.693 27.1947 454.917 26.868C455.141 26.532 455.468 26.266 455.897 26.07C456.327 25.874 456.845 25.776 457.451 25.776C458.301 25.776 458.973 25.9673 459.467 26.35C459.962 26.7327 460.256 27.26 460.349 27.932H458.571C458.515 27.7173 458.389 27.5493 458.193 27.428C458.007 27.2973 457.755 27.232 457.437 27.232C457.101 27.232 456.845 27.2927 456.667 27.414C456.49 27.5353 456.401 27.694 456.401 27.89C456.401 28.0207 456.457 28.1373 456.569 28.24C456.691 28.3427 456.859 28.4313 457.073 28.506C457.288 28.5713 457.549 28.6367 457.857 28.702C458.399 28.814 458.875 28.9447 459.285 29.094C459.696 29.234 460.018 29.4393 460.251 29.71C460.485 29.9713 460.601 30.354 460.601 30.858C460.601 31.306 460.48 31.7073 460.237 32.062C459.995 32.4073 459.649 32.678 459.201 32.874C458.763 33.07 458.24 33.168 457.633 33.168ZM464.781 33.168C464.193 33.168 463.707 33.0747 463.325 32.888C462.942 32.692 462.657 32.4353 462.471 32.118C462.293 31.7913 462.205 31.432 462.205 31.04C462.205 30.6107 462.312 30.2327 462.527 29.906C462.751 29.5793 463.082 29.3227 463.521 29.136C463.969 28.9493 464.529 28.856 465.201 28.856H466.951C466.951 28.5107 466.904 28.226 466.811 28.002C466.717 27.7687 466.573 27.596 466.377 27.484C466.181 27.372 465.919 27.316 465.593 27.316C465.238 27.316 464.935 27.3953 464.683 27.554C464.44 27.7033 464.291 27.9367 464.235 28.254H462.401C462.447 27.75 462.611 27.316 462.891 26.952C463.18 26.5787 463.558 26.2893 464.025 26.084C464.501 25.8787 465.028 25.776 465.607 25.776C466.269 25.776 466.843 25.888 467.329 26.112C467.814 26.336 468.187 26.658 468.449 27.078C468.71 27.498 468.841 28.016 468.841 28.632V33H467.245L467.035 31.922C466.932 32.1087 466.811 32.2767 466.671 32.426C466.531 32.5753 466.367 32.706 466.181 32.818C465.994 32.93 465.784 33.014 465.551 33.07C465.317 33.1353 465.061 33.168 464.781 33.168ZM465.229 31.712C465.471 31.712 465.686 31.67 465.873 31.586C466.069 31.4927 466.237 31.3713 466.377 31.222C466.517 31.0633 466.624 30.886 466.699 30.69C466.783 30.4847 466.839 30.2653 466.867 30.032V30.018H465.425C465.135 30.018 464.897 30.0553 464.711 30.13C464.533 30.1953 464.403 30.2933 464.319 30.424C464.235 30.5547 464.193 30.704 464.193 30.872C464.193 31.0587 464.235 31.2127 464.319 31.334C464.403 31.4553 464.524 31.5487 464.683 31.614C464.841 31.6793 465.023 31.712 465.229 31.712ZM470.846 33V25.944H472.736V33H470.846ZM471.798 24.978C471.462 24.978 471.182 24.88 470.958 24.684C470.743 24.4787 470.636 24.222 470.636 23.914C470.636 23.606 470.743 23.354 470.958 23.158C471.182 22.9527 471.462 22.85 471.798 22.85C472.143 22.85 472.423 22.9527 472.638 23.158C472.862 23.354 472.974 23.606 472.974 23.914C472.974 24.222 472.862 24.4787 472.638 24.684C472.423 24.88 472.143 24.978 471.798 24.978Z" fill="#222325"/>
<defs>
<clipPath id="clip0_25877_5543">
<rect y="13" width="30" height="30" rx="15" fill="white"/>
</clipPath>
<clipPath id="clip1_25877_5543">
<rect x="214" y="13" width="30" height="30" rx="15" fill="white"/>
</clipPath>
<clipPath id="clip2_25877_5543">
<rect x="382" y="13" width="30" height="30" rx="15" fill="white"/>
</clipPath>
</defs>
</svg>
