<svg width="486" height="56" viewBox="0 0 486 56" fill="none" xmlns="http://www.w3.org/2000/svg">
<g clip-path="url(#clip0_25877_5748)">
<rect x="1.5" y="14.5" width="27" height="27" rx="13.5" stroke="#3ECF4C" stroke-width="3"/>
<rect x="7" y="20" width="16" height="16" rx="8" fill="#3ECF4C"/>
</g>
<path d="M42.966 33V23.2H46.634C47.4273 23.2 48.0853 23.3353 48.608 23.606C49.1307 23.8767 49.518 24.2407 49.77 24.698C50.022 25.1553 50.148 25.678 50.148 26.266C50.148 26.8073 50.0267 27.3067 49.784 27.764C49.5413 28.2213 49.1587 28.5947 48.636 28.884C48.1133 29.164 47.446 29.304 46.634 29.304H44.856V33H42.966ZM44.856 27.778H46.522C47.1287 27.778 47.5627 27.6427 47.824 27.372C48.0947 27.092 48.23 26.7233 48.23 26.266C48.23 25.7807 48.0947 25.4073 47.824 25.146C47.5627 24.8753 47.1287 24.74 46.522 24.74H44.856V27.778ZM51.7656 33V25.944H53.6556V33H51.7656ZM52.7176 24.978C52.3816 24.978 52.1016 24.88 51.8776 24.684C51.6629 24.4787 51.5556 24.222 51.5556 23.914C51.5556 23.606 51.6629 23.354 51.8776 23.158C52.1016 22.9527 52.3816 22.85 52.7176 22.85C53.0629 22.85 53.3429 22.9527 53.5576 23.158C53.7816 23.354 53.8936 23.606 53.8936 23.914C53.8936 24.222 53.7816 24.4787 53.5576 24.684C53.3429 24.88 53.0629 24.978 52.7176 24.978ZM55.7654 33V22.92H57.6554V33H55.7654ZM59.7398 33V25.944H61.6298V33H59.7398ZM60.6918 24.978C60.3558 24.978 60.0758 24.88 59.8518 24.684C59.6372 24.4787 59.5298 24.222 59.5298 23.914C59.5298 23.606 59.6372 23.354 59.8518 23.158C60.0758 22.9527 60.3558 22.85 60.6918 22.85C61.0372 22.85 61.3172 22.9527 61.5318 23.158C61.7558 23.354 61.8678 23.606 61.8678 23.914C61.8678 24.222 61.7558 24.4787 61.5318 24.684C61.3172 24.88 61.0372 24.978 60.6918 24.978ZM63.7396 33V22.92H65.6296V26.994C65.863 26.6207 66.171 26.3267 66.5536 26.112C66.9456 25.888 67.3983 25.776 67.9116 25.776C68.4996 25.776 68.9943 25.902 69.3956 26.154C69.797 26.3967 70.1003 26.7513 70.3056 27.218C70.511 27.6847 70.6136 28.2633 70.6136 28.954V33H68.7376V29.122C68.7376 28.562 68.621 28.1327 68.3876 27.834C68.1543 27.526 67.7856 27.372 67.2816 27.372C66.9736 27.372 66.6936 27.4467 66.4416 27.596C66.1896 27.7453 65.989 27.9647 65.8396 28.254C65.6996 28.534 65.6296 28.87 65.6296 29.262V33H63.7396ZM76.1308 33V23.2H78.3848L81.3808 29.318L84.3488 23.2H86.6028V33H84.7128V26.42L82.1228 31.628H80.6248L78.0208 26.42V33H76.1308ZM92.0772 33.168C91.3679 33.168 90.7379 33.0187 90.1872 32.72C89.6459 32.412 89.2212 31.9873 88.9132 31.446C88.6146 30.8953 88.4652 30.2607 88.4652 29.542C88.4652 28.8047 88.6146 28.156 88.9132 27.596C89.2212 27.0267 89.6459 26.5833 90.1872 26.266C90.7286 25.9393 91.3586 25.776 92.0772 25.776C92.7772 25.776 93.3886 25.93 93.9112 26.238C94.4339 26.546 94.8399 26.9613 95.1292 27.484C95.4186 28.0067 95.5632 28.5993 95.5632 29.262C95.5632 29.3553 95.5632 29.4627 95.5632 29.584C95.5632 29.696 95.5539 29.8127 95.5352 29.934H89.8092V28.786H93.6592C93.6312 28.3287 93.4679 27.9693 93.1692 27.708C92.8799 27.4467 92.5159 27.316 92.0772 27.316C91.7599 27.316 91.4659 27.3907 91.1952 27.54C90.9246 27.68 90.7099 27.8993 90.5512 28.198C90.4019 28.4967 90.3272 28.8747 90.3272 29.332V29.738C90.3272 30.1207 90.3972 30.4567 90.5372 30.746C90.6866 31.026 90.8919 31.2453 91.1532 31.404C91.4146 31.5533 91.7179 31.628 92.0632 31.628C92.4086 31.628 92.6932 31.5533 92.9172 31.404C93.1506 31.2547 93.3232 31.0633 93.4352 30.83H95.3672C95.2366 31.2687 95.0172 31.6653 94.7092 32.02C94.4012 32.3747 94.0232 32.6547 93.5752 32.86C93.1272 33.0653 92.6279 33.168 92.0772 33.168ZM100.393 33C99.8987 33 99.4647 32.9253 99.0914 32.776C98.7274 32.6173 98.4427 32.3607 98.2374 32.006C98.0321 31.642 97.9294 31.1473 97.9294 30.522V27.526H96.7254V25.944H97.9294L98.1394 24.026H99.8194V25.944H101.681V27.526H99.8194V30.55C99.8194 30.8673 99.8894 31.0867 100.029 31.208C100.169 31.3293 100.407 31.39 100.743 31.39H101.667V33H100.393ZM106.626 33.168C105.954 33.168 105.348 33.014 104.806 32.706C104.274 32.3887 103.85 31.9547 103.532 31.404C103.224 30.844 103.07 30.2047 103.07 29.486C103.07 28.7487 103.224 28.1047 103.532 27.554C103.85 26.994 104.279 26.56 104.82 26.252C105.362 25.9347 105.968 25.776 106.64 25.776C107.322 25.776 107.928 25.9347 108.46 26.252C109.002 26.56 109.426 26.994 109.734 27.554C110.052 28.1047 110.21 28.744 110.21 29.472C110.21 30.2 110.052 30.844 109.734 31.404C109.426 31.9547 109.002 32.3887 108.46 32.706C107.919 33.014 107.308 33.168 106.626 33.168ZM106.626 31.53C106.944 31.53 107.224 31.4553 107.466 31.306C107.718 31.1567 107.914 30.928 108.054 30.62C108.204 30.312 108.278 29.9293 108.278 29.472C108.278 29.0147 108.204 28.6367 108.054 28.338C107.914 28.03 107.718 27.8013 107.466 27.652C107.224 27.4933 106.948 27.414 106.64 27.414C106.342 27.414 106.066 27.4933 105.814 27.652C105.562 27.8013 105.362 28.03 105.212 28.338C105.072 28.6367 105.002 29.0147 105.002 29.472C105.002 29.9293 105.072 30.312 105.212 30.62C105.362 30.928 105.558 31.1567 105.8 31.306C106.052 31.4553 106.328 31.53 106.626 31.53ZM115.175 33.168C114.531 33.168 113.953 33.0093 113.439 32.692C112.935 32.3747 112.539 31.936 112.249 31.376C111.96 30.816 111.815 30.186 111.815 29.486C111.815 28.7673 111.96 28.1327 112.249 27.582C112.548 27.022 112.954 26.5833 113.467 26.266C113.99 25.9393 114.573 25.776 115.217 25.776C115.721 25.776 116.165 25.8693 116.547 26.056C116.93 26.2427 117.238 26.5087 117.471 26.854V22.92H119.361V33H117.681L117.471 32.034C117.331 32.23 117.154 32.4167 116.939 32.594C116.734 32.7713 116.487 32.9113 116.197 33.014C115.908 33.1167 115.567 33.168 115.175 33.168ZM115.623 31.516C115.997 31.516 116.323 31.432 116.603 31.264C116.893 31.0867 117.117 30.844 117.275 30.536C117.434 30.228 117.513 29.8733 117.513 29.472C117.513 29.0707 117.434 28.716 117.275 28.408C117.117 28.1 116.893 27.862 116.603 27.694C116.323 27.5167 115.997 27.428 115.623 27.428C115.269 27.428 114.947 27.5167 114.657 27.694C114.368 27.862 114.139 28.1 113.971 28.408C113.813 28.716 113.733 29.066 113.733 29.458C113.733 29.8687 113.813 30.228 113.971 30.536C114.139 30.844 114.363 31.0867 114.643 31.264C114.933 31.432 115.259 31.516 115.623 31.516ZM124.801 33.168C124.092 33.168 123.462 33.0187 122.911 32.72C122.37 32.412 121.945 31.9873 121.637 31.446C121.338 30.8953 121.189 30.2607 121.189 29.542C121.189 28.8047 121.338 28.156 121.637 27.596C121.945 27.0267 122.37 26.5833 122.911 26.266C123.452 25.9393 124.082 25.776 124.801 25.776C125.501 25.776 126.112 25.93 126.635 26.238C127.158 26.546 127.564 26.9613 127.853 27.484C128.142 28.0067 128.287 28.5993 128.287 29.262C128.287 29.3553 128.287 29.4627 128.287 29.584C128.287 29.696 128.278 29.8127 128.259 29.934H122.533V28.786H126.383C126.355 28.3287 126.192 27.9693 125.893 27.708C125.604 27.4467 125.24 27.316 124.801 27.316C124.484 27.316 124.19 27.3907 123.919 27.54C123.648 27.68 123.434 27.8993 123.275 28.198C123.126 28.4967 123.051 28.8747 123.051 29.332V29.738C123.051 30.1207 123.121 30.4567 123.261 30.746C123.41 31.026 123.616 31.2453 123.877 31.404C124.138 31.5533 124.442 31.628 124.787 31.628C125.132 31.628 125.417 31.5533 125.641 31.404C125.874 31.2547 126.047 31.0633 126.159 30.83H128.091C127.96 31.2687 127.741 31.6653 127.433 32.02C127.125 32.3747 126.747 32.6547 126.299 32.86C125.851 33.0653 125.352 33.168 124.801 33.168Z" fill="#222325"/>
<rect x="141" y="26.5" width="73.5" height="3" fill="#3A3541" fill-opacity="0.38"/>
<g clip-path="url(#clip1_25877_5748)">
<g clip-path="url(#clip2_25877_5748)">
<rect x="216" y="14.5" width="27" height="27" rx="13.5" stroke="#3A3541" stroke-opacity="0.38" stroke-width="3"/>
<rect x="221.5" y="20" width="16" height="16" rx="8" fill="#3A3541" fill-opacity="0.38"/>
</g>
<path d="M257.466 33V23.2H261.484C262.165 23.2 262.739 23.3073 263.206 23.522C263.673 23.7367 264.023 24.0353 264.256 24.418C264.499 24.7913 264.62 25.2253 264.62 25.72C264.62 26.2147 264.513 26.63 264.298 26.966C264.083 27.302 263.799 27.5633 263.444 27.75C263.099 27.9273 262.716 28.03 262.296 28.058L262.52 27.904C262.968 27.9227 263.365 28.044 263.71 28.268C264.065 28.4827 264.34 28.772 264.536 29.136C264.741 29.5 264.844 29.8967 264.844 30.326C264.844 30.8487 264.718 31.3107 264.466 31.712C264.214 32.1133 263.85 32.4307 263.374 32.664C262.898 32.888 262.315 33 261.624 33H257.466ZM259.356 31.46H261.316C261.829 31.46 262.226 31.3433 262.506 31.11C262.786 30.8767 262.926 30.5407 262.926 30.102C262.926 29.6633 262.781 29.3227 262.492 29.08C262.203 28.828 261.801 28.702 261.288 28.702H259.356V31.46ZM259.356 27.288H261.176C261.671 27.288 262.044 27.176 262.296 26.952C262.557 26.728 262.688 26.4107 262.688 26C262.688 25.5987 262.557 25.286 262.296 25.062C262.044 24.8287 261.666 24.712 261.162 24.712H259.356V27.288ZM268.932 33.168C268.344 33.168 267.858 33.0747 267.476 32.888C267.093 32.692 266.808 32.4353 266.622 32.118C266.444 31.7913 266.356 31.432 266.356 31.04C266.356 30.6107 266.463 30.2327 266.678 29.906C266.902 29.5793 267.233 29.3227 267.672 29.136C268.12 28.9493 268.68 28.856 269.352 28.856H271.102C271.102 28.5107 271.055 28.226 270.962 28.002C270.868 27.7687 270.724 27.596 270.528 27.484C270.332 27.372 270.07 27.316 269.744 27.316C269.389 27.316 269.086 27.3953 268.834 27.554C268.591 27.7033 268.442 27.9367 268.386 28.254H266.552C266.598 27.75 266.762 27.316 267.042 26.952C267.331 26.5787 267.709 26.2893 268.176 26.084C268.652 25.8787 269.179 25.776 269.758 25.776C270.42 25.776 270.994 25.888 271.48 26.112C271.965 26.336 272.338 26.658 272.6 27.078C272.861 27.498 272.992 28.016 272.992 28.632V33H271.396L271.186 31.922C271.083 32.1087 270.962 32.2767 270.822 32.426C270.682 32.5753 270.518 32.706 270.332 32.818C270.145 32.93 269.935 33.014 269.702 33.07C269.468 33.1353 269.212 33.168 268.932 33.168ZM269.38 31.712C269.622 31.712 269.837 31.67 270.024 31.586C270.22 31.4927 270.388 31.3713 270.528 31.222C270.668 31.0633 270.775 30.886 270.85 30.69C270.934 30.4847 270.99 30.2653 271.018 30.032V30.018H269.576C269.286 30.018 269.048 30.0553 268.862 30.13C268.684 30.1953 268.554 30.2933 268.47 30.424C268.386 30.5547 268.344 30.704 268.344 30.872C268.344 31.0587 268.386 31.2127 268.47 31.334C268.554 31.4553 268.675 31.5487 268.834 31.614C268.992 31.6793 269.174 31.712 269.38 31.712ZM275.605 36.08L277.313 32.216H276.893L274.065 25.944H276.123L278.139 30.494L279.959 25.944H281.961L277.607 36.08H275.605ZM285.164 33.168C284.576 33.168 284.09 33.0747 283.708 32.888C283.325 32.692 283.04 32.4353 282.854 32.118C282.676 31.7913 282.588 31.432 282.588 31.04C282.588 30.6107 282.695 30.2327 282.91 29.906C283.134 29.5793 283.465 29.3227 283.904 29.136C284.352 28.9493 284.912 28.856 285.584 28.856H287.334C287.334 28.5107 287.287 28.226 287.194 28.002C287.1 27.7687 286.956 27.596 286.76 27.484C286.564 27.372 286.302 27.316 285.976 27.316C285.621 27.316 285.318 27.3953 285.066 27.554C284.823 27.7033 284.674 27.9367 284.618 28.254H282.784C282.83 27.75 282.994 27.316 283.274 26.952C283.563 26.5787 283.941 26.2893 284.408 26.084C284.884 25.8787 285.411 25.776 285.99 25.776C286.652 25.776 287.226 25.888 287.712 26.112C288.197 26.336 288.57 26.658 288.832 27.078C289.093 27.498 289.224 28.016 289.224 28.632V33H287.628L287.418 31.922C287.315 32.1087 287.194 32.2767 287.054 32.426C286.914 32.5753 286.75 32.706 286.564 32.818C286.377 32.93 286.167 33.014 285.934 33.07C285.7 33.1353 285.444 33.168 285.164 33.168ZM285.612 31.712C285.854 31.712 286.069 31.67 286.256 31.586C286.452 31.4927 286.62 31.3713 286.76 31.222C286.9 31.0633 287.007 30.886 287.082 30.69C287.166 30.4847 287.222 30.2653 287.25 30.032V30.018H285.808C285.518 30.018 285.28 30.0553 285.094 30.13C284.916 30.1953 284.786 30.2933 284.702 30.424C284.618 30.5547 284.576 30.704 284.576 30.872C284.576 31.0587 284.618 31.2127 284.702 31.334C284.786 31.4553 284.907 31.5487 285.066 31.614C285.224 31.6793 285.406 31.712 285.612 31.712ZM291.187 33V25.944H292.867L293.049 27.246C293.217 26.938 293.427 26.6767 293.679 26.462C293.94 26.2473 294.234 26.0793 294.561 25.958C294.897 25.8367 295.266 25.776 295.667 25.776V27.778H295.023C294.743 27.778 294.482 27.8107 294.239 27.876C294.006 27.9413 293.8 28.0487 293.623 28.198C293.446 28.338 293.31 28.534 293.217 28.786C293.124 29.038 293.077 29.3553 293.077 29.738V33H291.187Z" fill="#3A3541" fill-opacity="0.38"/>
</g>
<rect x="308.5" y="26.5" width="73.5" height="3" fill="#3A3541" fill-opacity="0.38"/>
<g clip-path="url(#clip3_25877_5748)">
<rect x="383.5" y="14.5" width="27" height="27" rx="13.5" stroke="#3A3541" stroke-opacity="0.38" stroke-width="3"/>
<rect x="389" y="20" width="16" height="16" rx="8" fill="#3A3541" fill-opacity="0.38"/>
</g>
<path d="M428.298 33.168C427.579 33.168 426.945 33.0467 426.394 32.804C425.843 32.552 425.409 32.1973 425.092 31.74C424.775 31.2733 424.611 30.7087 424.602 30.046H426.492C426.511 30.5033 426.674 30.8907 426.982 31.208C427.299 31.516 427.733 31.67 428.284 31.67C428.76 31.67 429.138 31.558 429.418 31.334C429.698 31.1007 429.838 30.7927 429.838 30.41C429.838 30.0087 429.712 29.696 429.46 29.472C429.217 29.248 428.891 29.066 428.48 28.926C428.069 28.786 427.631 28.6367 427.164 28.478C426.408 28.2167 425.829 27.8807 425.428 27.47C425.036 27.0593 424.84 26.5133 424.84 25.832C424.831 25.2533 424.966 24.7587 425.246 24.348C425.535 23.928 425.927 23.606 426.422 23.382C426.917 23.1487 427.486 23.032 428.13 23.032C428.783 23.032 429.357 23.1487 429.852 23.382C430.356 23.6153 430.748 23.942 431.028 24.362C431.317 24.782 431.471 25.2813 431.49 25.86H429.572C429.563 25.5147 429.427 25.2113 429.166 24.95C428.914 24.6793 428.559 24.544 428.102 24.544C427.71 24.5347 427.379 24.6327 427.108 24.838C426.847 25.034 426.716 25.3233 426.716 25.706C426.716 26.0327 426.819 26.294 427.024 26.49C427.229 26.6767 427.509 26.8353 427.864 26.966C428.219 27.0967 428.625 27.2367 429.082 27.386C429.567 27.554 430.011 27.75 430.412 27.974C430.813 28.198 431.135 28.4967 431.378 28.87C431.621 29.234 431.742 29.7053 431.742 30.284C431.742 30.7973 431.611 31.2733 431.35 31.712C431.089 32.1507 430.701 32.5053 430.188 32.776C429.675 33.0373 429.045 33.168 428.298 33.168ZM436.838 33.168C436.138 33.168 435.517 33.0187 434.976 32.72C434.434 32.4213 434.01 32.0013 433.702 31.46C433.394 30.9187 433.24 30.2933 433.24 29.584C433.24 28.8653 433.389 28.226 433.688 27.666C433.996 27.106 434.416 26.672 434.948 26.364C435.489 26.0467 436.124 25.888 436.852 25.888C437.533 25.888 438.135 26.0373 438.658 26.336C439.18 26.6347 439.586 27.0453 439.876 27.568C440.174 28.0813 440.324 28.6553 440.324 29.29C440.324 29.3927 440.319 29.5 440.31 29.612C440.31 29.724 440.305 29.8407 440.296 29.962H435.018C435.055 30.5033 435.242 30.928 435.578 31.236C435.923 31.544 436.338 31.698 436.824 31.698C437.188 31.698 437.491 31.6187 437.734 31.46C437.986 31.292 438.172 31.0773 438.294 30.816H440.114C439.983 31.2547 439.764 31.656 439.456 32.02C439.157 32.3747 438.784 32.6547 438.336 32.86C437.897 33.0653 437.398 33.168 436.838 33.168ZM436.852 27.344C436.413 27.344 436.026 27.47 435.69 27.722C435.354 27.9647 435.139 28.338 435.046 28.842H438.504C438.476 28.3847 438.308 28.0207 438 27.75C437.692 27.4793 437.309 27.344 436.852 27.344ZM442.031 33V22.92H443.823V33H442.031ZM449.228 33.168C448.528 33.168 447.907 33.0187 447.366 32.72C446.824 32.4213 446.4 32.0013 446.092 31.46C445.784 30.9187 445.63 30.2933 445.63 29.584C445.63 28.8653 445.779 28.226 446.078 27.666C446.386 27.106 446.806 26.672 447.338 26.364C447.879 26.0467 448.514 25.888 449.242 25.888C449.923 25.888 450.525 26.0373 451.048 26.336C451.57 26.6347 451.976 27.0453 452.266 27.568C452.564 28.0813 452.714 28.6553 452.714 29.29C452.714 29.3927 452.709 29.5 452.7 29.612C452.7 29.724 452.695 29.8407 452.686 29.962H447.408C447.445 30.5033 447.632 30.928 447.968 31.236C448.313 31.544 448.728 31.698 449.214 31.698C449.578 31.698 449.881 31.6187 450.124 31.46C450.376 31.292 450.562 31.0773 450.684 30.816H452.504C452.373 31.2547 452.154 31.656 451.846 32.02C451.547 32.3747 451.174 32.6547 450.726 32.86C450.287 33.0653 449.788 33.168 449.228 33.168ZM449.242 27.344C448.803 27.344 448.416 27.47 448.08 27.722C447.744 27.9647 447.529 28.338 447.436 28.842H450.894C450.866 28.3847 450.698 28.0207 450.39 27.75C450.082 27.4793 449.699 27.344 449.242 27.344ZM457.291 33.168C456.675 33.168 456.134 33.07 455.667 32.874C455.2 32.6687 454.827 32.3887 454.547 32.034C454.267 31.6793 454.099 31.2687 454.043 30.802H455.849C455.905 31.0727 456.054 31.306 456.297 31.502C456.549 31.6887 456.871 31.782 457.263 31.782C457.655 31.782 457.94 31.7027 458.117 31.544C458.304 31.3853 458.397 31.2033 458.397 30.998C458.397 30.6993 458.266 30.4987 458.005 30.396C457.744 30.284 457.38 30.1767 456.913 30.074C456.614 30.0087 456.311 29.9293 456.003 29.836C455.695 29.7427 455.41 29.626 455.149 29.486C454.897 29.3367 454.692 29.15 454.533 28.926C454.374 28.6927 454.295 28.408 454.295 28.072C454.295 27.456 454.538 26.938 455.023 26.518C455.518 26.098 456.208 25.888 457.095 25.888C457.916 25.888 458.57 26.0793 459.055 26.462C459.55 26.8447 459.844 27.372 459.937 28.044H458.243C458.14 27.5307 457.753 27.274 457.081 27.274C456.745 27.274 456.484 27.3393 456.297 27.47C456.12 27.6007 456.031 27.764 456.031 27.96C456.031 28.1653 456.166 28.3287 456.437 28.45C456.708 28.5713 457.067 28.6833 457.515 28.786C458 28.898 458.444 29.024 458.845 29.164C459.256 29.2947 459.582 29.4953 459.825 29.766C460.068 30.0273 460.189 30.4053 460.189 30.9C460.198 31.3293 460.086 31.7167 459.853 32.062C459.62 32.4073 459.284 32.678 458.845 32.874C458.406 33.07 457.888 33.168 457.291 33.168ZM464.37 33.168C463.773 33.168 463.283 33.0747 462.9 32.888C462.518 32.692 462.233 32.4353 462.046 32.118C461.86 31.8007 461.766 31.4507 461.766 31.068C461.766 30.424 462.018 29.9013 462.522 29.5C463.026 29.0987 463.782 28.898 464.79 28.898H466.554V28.73C466.554 28.254 466.419 27.904 466.148 27.68C465.878 27.456 465.542 27.344 465.14 27.344C464.776 27.344 464.459 27.4327 464.188 27.61C463.918 27.778 463.75 28.03 463.684 28.366H461.934C461.981 27.862 462.149 27.4233 462.438 27.05C462.737 26.6767 463.12 26.392 463.586 26.196C464.053 25.9907 464.576 25.888 465.154 25.888C466.144 25.888 466.923 26.1353 467.492 26.63C468.062 27.1247 468.346 27.8247 468.346 28.73V33H466.82L466.652 31.88C466.447 32.2533 466.158 32.5613 465.784 32.804C465.42 33.0467 464.949 33.168 464.37 33.168ZM464.776 31.768C465.29 31.768 465.686 31.6 465.966 31.264C466.256 30.928 466.438 30.5127 466.512 30.018H464.986C464.51 30.018 464.17 30.1067 463.964 30.284C463.759 30.452 463.656 30.662 463.656 30.914C463.656 31.1847 463.759 31.3947 463.964 31.544C464.17 31.6933 464.44 31.768 464.776 31.768ZM471.222 24.978C470.896 24.978 470.625 24.88 470.41 24.684C470.205 24.488 470.102 24.2407 470.102 23.942C470.102 23.6433 470.205 23.4007 470.41 23.214C470.625 23.018 470.896 22.92 471.222 22.92C471.549 22.92 471.815 23.018 472.02 23.214C472.235 23.4007 472.342 23.6433 472.342 23.942C472.342 24.2407 472.235 24.488 472.02 24.684C471.815 24.88 471.549 24.978 471.222 24.978ZM470.326 33V26.056H472.118V33H470.326Z" fill="#3A3541" fill-opacity="0.38"/>
<defs>
<clipPath id="clip0_25877_5748">
<rect y="13" width="30" height="30" rx="15" fill="white"/>
</clipPath>
<clipPath id="clip1_25877_5748">
<rect width="94" height="30" fill="white" transform="translate(214.5 13)"/>
</clipPath>
<clipPath id="clip2_25877_5748">
<rect x="214.5" y="13" width="30" height="30" rx="15" fill="white"/>
</clipPath>
<clipPath id="clip3_25877_5748">
<rect x="382" y="13" width="30" height="30" rx="15" fill="white"/>
</clipPath>
</defs>
</svg>
